<svg width="12" height="14" viewBox="0 0 12 14" fill="none" xmlns="http://www.w3.org/2000/svg">
<path d="M9.36826 4.3473C9.36826 3.45954 9.0156 2.60814 8.38786 1.9804C7.76012 1.35266 6.90872 1 6.02096 1C5.1332 1 4.2818 1.35266 3.65405 1.9804C3.02631 2.60814 2.67365 3.45954 2.67365 4.3473C2.67365 8.25249 1 9.36826 1 9.36826H11.0419C11.0419 9.36826 9.36826 8.25249 9.36826 4.3473Z" stroke="white" stroke-width="1.3" stroke-linecap="round" stroke-linejoin="round"/>
<path d="M7.27615 12.3305C7.16984 12.5341 7.01726 12.7031 6.83369 12.8206C6.65011 12.9381 6.44197 13 6.23011 13C6.01826 13 5.81012 12.9381 5.62654 12.8206C5.44296 12.7031 5.29038 12.5341 5.18408 12.3305" stroke="white" stroke-width="1.3" stroke-linecap="round" stroke-linejoin="round"/>
</svg>
