<svg width="12" height="12" viewBox="0 0 12 12" fill="none" xmlns="http://www.w3.org/2000/svg">
<path d="M7.44304 1.06682L7.70081 0.486834C7.77845 0.312154 7.69977 0.107568 7.52507 0.0299433C7.35035 -0.0477286 7.14581 0.0309745 7.06818 0.205678L6.69801 1.03855H5.30177L4.93159 0.205654C4.85397 0.0309745 4.64938 -0.0477287 4.4747 0.0299198C4.30002 0.107545 4.22134 0.312131 4.29897 0.486811L4.55673 1.0668C3.86765 1.20203 3.34607 1.81037 3.34607 2.53851V3.11542H8.65373V2.53851C8.6537 1.81042 8.13213 1.20203 7.44304 1.06682Z" fill="#858B98"/>
<path d="M11.6538 6.11546H9.57684V5.39574C10.6218 5.22928 11.423 4.32192 11.423 3.23086V2.76933C11.423 2.57817 11.268 2.42318 11.0768 2.42318C10.8857 2.42318 10.7307 2.57817 10.7307 2.76933V3.23086C10.7307 3.93881 10.2376 4.53335 9.57686 4.6901V4.38471C9.57686 4.0666 9.31806 3.8078 8.99995 3.8078H6.34612V7.84622C6.34612 8.03738 6.19113 8.19237 5.99997 8.19237C5.80879 8.19237 5.65382 8.03738 5.65382 7.84622V3.80777H3C2.68188 3.80777 2.42308 4.06657 2.42308 4.38469V4.69008C1.76238 4.53333 1.26926 3.93879 1.26926 3.23084V2.76931C1.26926 2.57815 1.11426 2.42316 0.923109 2.42316C0.731953 2.42316 0.576961 2.57815 0.576961 2.76931V3.23084C0.576961 4.3219 1.37817 5.22924 2.42311 5.39571V6.11543H0.346148C0.154992 6.11543 0 6.27042 0 6.46158C0 6.65274 0.154992 6.80773 0.346148 6.80773H2.42306V7.52745C1.37812 7.6939 0.576914 8.60126 0.576914 9.69232V10.1539C0.576914 10.345 0.731906 10.5 0.923062 10.5C1.11422 10.5 1.26921 10.345 1.26921 10.1539V9.69232C1.26921 8.98437 1.76233 8.38983 2.42304 8.23308V8.42309C2.42306 10.3954 4.02766 12 5.99995 12C7.97224 12 9.57684 10.3954 9.57684 8.42314V8.23313C10.2375 8.38988 10.7307 8.98442 10.7307 9.69237V10.1539C10.7307 10.3451 10.8857 10.5001 11.0768 10.5001C11.268 10.5001 11.423 10.3451 11.423 10.1539V9.69237C11.423 8.60131 10.6218 7.69397 9.57681 7.5275V6.80778H11.6537C11.8449 6.80778 11.9999 6.65278 11.9999 6.46163C11.9999 6.27047 11.8449 6.11546 11.6538 6.11546Z" fill="#858B98"/>
</svg>
