<svg width="15" height="16" viewBox="0 0 15 16" fill="none" xmlns="http://www.w3.org/2000/svg">
<path d="M9.6 1.6H1.6V14.4H12.8V4.8H9.6V1.6ZM0 0.7936C0 0.3552 0.3576 0 0.7992 0H10.4L14.4 4V15.1944C14.4007 15.2995 14.3808 15.4036 14.3413 15.501C14.3017 15.5983 14.2434 15.6869 14.1697 15.7617C14.0959 15.8365 14.0081 15.8961 13.9113 15.937C13.8145 15.9778 13.7107 15.9993 13.6056 16H0.7944C0.584303 15.9985 0.383214 15.9145 0.234574 15.766C0.0859343 15.6175 0.00167572 15.4165 0 15.2064V0.7936ZM8 8V11.2H6.4V8H4L7.2 4.8L10.4 8H8Z" fill="#6022FF"/>
</svg>
