<svg width="10" height="10" viewBox="0 0 10 10" fill="none" xmlns="http://www.w3.org/2000/svg">
<path d="M5 10C2.2385 10 0 7.7615 0 5C0 2.2385 2.2385 0 5 0C7.7615 0 10 2.2385 10 5C10 7.7615 7.7615 10 5 10ZM5 9C6.06087 9 7.07828 8.57857 7.82843 7.82843C8.57857 7.07828 9 6.06087 9 5C9 3.93913 8.57857 2.92172 7.82843 2.17157C7.07828 1.42143 6.06087 1 5 1C3.93913 1 2.92172 1.42143 2.17157 2.17157C1.42143 2.92172 1 3.93913 1 5C1 6.06087 1.42143 7.07828 2.17157 7.82843C2.92172 8.57857 3.93913 9 5 9ZM3.25 6H6C6.0663 6 6.12989 5.97366 6.17678 5.92678C6.22366 5.87989 6.25 5.8163 6.25 5.75C6.25 5.6837 6.22366 5.62011 6.17678 5.57322C6.12989 5.52634 6.0663 5.5 6 5.5H4C3.66848 5.5 3.35054 5.3683 3.11612 5.13388C2.8817 4.89946 2.75 4.58152 2.75 4.25C2.75 3.91848 2.8817 3.60054 3.11612 3.36612C3.35054 3.1317 3.66848 3 4 3H4.5V2H5.5V3H6.75V4H4C3.9337 4 3.87011 4.02634 3.82322 4.07322C3.77634 4.12011 3.75 4.1837 3.75 4.25C3.75 4.3163 3.77634 4.37989 3.82322 4.42678C3.87011 4.47366 3.9337 4.5 4 4.5H6C6.33152 4.5 6.64946 4.6317 6.88388 4.86612C7.1183 5.10054 7.25 5.41848 7.25 5.75C7.25 6.08152 7.1183 6.39946 6.88388 6.63388C6.64946 6.8683 6.33152 7 6 7H5.5V8H4.5V7H3.25V6Z" fill="#6022FF"/>
</svg>
