<svg width="17" height="12" viewBox="0 0 17 12" fill="none" xmlns="http://www.w3.org/2000/svg">
<path d="M0.818182 0H15.5455C15.7624 0 15.9706 0.0702379 16.124 0.195262C16.2774 0.320286 16.3636 0.489856 16.3636 0.666667V11.3333C16.3636 11.5101 16.2774 11.6797 16.124 11.8047C15.9706 11.9298 15.7624 12 15.5455 12H0.818182C0.601187 12 0.393079 11.9298 0.23964 11.8047C0.086201 11.6797 0 11.5101 0 11.3333V0.666667C0 0.489856 0.086201 0.320286 0.23964 0.195262C0.393079 0.0702379 0.601187 0 0.818182 0ZM14.7273 6H1.63636V10.6667H14.7273V6ZM14.7273 3.33333V1.33333H1.63636V3.33333H14.7273Z" fill="#6022FF"/>
</svg>
