<svg width="16" height="16" viewBox="0 0 16 16" fill="none" xmlns="http://www.w3.org/2000/svg">
<path d="M2.7704 1.94641C4.22204 0.688536 6.07918 -0.00267189 7.99999 7.76212e-06C12.4184 7.76212e-06 16 3.5816 16 8C16 9.7088 15.464 11.2928 14.552 12.592L12 8H14.4C14.4001 6.7453 14.0314 5.51825 13.3397 4.47141C12.6481 3.42457 11.6639 2.60413 10.5097 2.1121C9.35553 1.62008 8.08216 1.47817 6.84796 1.70402C5.61375 1.92987 4.47316 2.51352 3.568 3.3824L2.7704 1.94641ZM13.2296 14.0536C11.7779 15.3115 9.9208 16.0027 7.99999 16C3.5816 16 0 12.4184 0 8C0 6.2912 0.535999 4.7072 1.448 3.408L4 8H1.6C1.5999 9.2547 1.9686 10.4818 2.66027 11.5286C3.35193 12.5754 4.33605 13.3959 5.49025 13.8879C6.64445 14.3799 7.91782 14.5218 9.15203 14.296C10.3862 14.0701 11.5268 13.4865 12.432 12.6176L13.2296 14.0536Z" fill="#6022FF"/>
</svg>
