<svg width="12" height="10" viewBox="0 0 12 10" fill="none" xmlns="http://www.w3.org/2000/svg">
<path d="M0.6 0H11.4C11.5591 0 11.7117 0.0632141 11.8243 0.175736C11.9368 0.288258 12 0.44087 12 0.6V9.2C12 9.35913 11.9368 9.51174 11.8243 9.62426C11.7117 9.73679 11.5591 9.8 11.4 9.8H0.6C0.44087 9.8 0.288258 9.73679 0.175736 9.62426C0.0632141 9.51174 0 9.35913 0 9.2V0.6C0 0.44087 0.0632141 0.288258 0.175736 0.175736C0.288258 0.0632141 0.44087 0 0.6 0ZM10.8 2.5428L6.0432 5.8028L1.2 2.5296V8.6H10.8V2.5428ZM1.5066 1.2L6.0366 4.1972L10.5012 1.2H1.5066Z" fill="white"/>
</svg>
