<svg width="11" height="12" viewBox="0 0 11 12" fill="none" xmlns="http://www.w3.org/2000/svg">
<path d="M7.2 1.2H1.2V10.8H9.6V3.6H7.2V1.2ZM0 0.5952C0 0.2664 0.2682 0 0.5994 0H7.8L10.8 3V11.3958C10.8006 11.4746 10.7856 11.5527 10.7559 11.6257C10.7263 11.6987 10.6826 11.7652 10.6272 11.8213C10.5719 11.8774 10.5061 11.9221 10.4335 11.9527C10.3609 11.9834 10.283 11.9995 10.2042 12H0.5958C0.438227 11.9989 0.28741 11.9359 0.175931 11.8245C0.0644507 11.7131 0.00125679 11.5624 0 11.4048V0.5952ZM6 6V8.4H4.8V6H3L5.4 3.6L7.8 6H6Z" fill="white"/>
</svg>
