<svg width="22" height="22" viewBox="0 0 22 22" fill="none" xmlns="http://www.w3.org/2000/svg">
<path d="M10.9999 6.8125C8.69062 6.8125 6.81186 8.69118 6.81186 11.0004C6.81186 13.3096 8.69062 15.1883 10.9999 15.1883C13.3092 15.1883 15.1879 13.3096 15.1879 11.0004C15.1879 8.69118 13.3092 6.8125 10.9999 6.8125Z" fill="#1F293E"/>
<path d="M16.1777 0H5.82227C2.61186 0 0 2.61186 0 5.82227V16.1777C0 19.3881 2.61186 22 5.82227 22H16.1777C19.3881 22 22 19.3881 22 16.1777V5.82227C22 2.61186 19.3881 0 16.1777 0ZM11.0002 16.477C7.98011 16.477 5.52307 14.02 5.52307 11C5.52307 7.97998 7.98011 5.52303 11.0002 5.52303C14.0202 5.52303 16.4773 7.97998 16.4773 11C16.4773 14.02 14.0202 16.477 11.0002 16.477ZM17.5832 5.32868C17.4634 5.44857 17.2971 5.51736 17.1273 5.51736C16.9581 5.51736 16.7918 5.44857 16.6714 5.32868C16.5516 5.20837 16.4832 5.04208 16.4832 4.87283C16.4832 4.7031 16.5516 4.5372 16.6714 4.41693C16.7918 4.29705 16.9576 4.2283 17.1273 4.2283C17.2971 4.2283 17.4634 4.29705 17.5832 4.41693C17.7031 4.53724 17.7719 4.7031 17.7719 4.87283C17.7719 5.04251 17.7031 5.20837 17.5832 5.32868Z" fill="#1F293E"/>
</svg>
