<svg width="23" height="22" viewBox="0 0 23 22" fill="none" xmlns="http://www.w3.org/2000/svg">
<path d="M22.5007 22.0003V13.9429C22.5007 9.98296 21.6482 6.95801 17.0283 6.95801C14.8008 6.95801 13.3159 8.16799 12.7109 9.32297H12.6559V7.3155H8.28345V22.0003H12.8484V14.7129C12.8484 12.7879 13.2059 10.9454 15.5708 10.9454C17.9083 10.9454 17.9358 13.1179 17.9358 14.8229V21.9728H22.5007V22.0003Z" fill="#1F293E"/>
<path d="M0.857666 7.31543H5.42259V22.0002H0.857666V7.31543Z" fill="#1F293E"/>
<path d="M3.1402 0C1.68273 0 0.500244 1.18248 0.500244 2.63996C0.500244 4.09744 1.68273 5.30742 3.1402 5.30742C4.59768 5.30742 5.78016 4.09744 5.78016 2.63996C5.78016 1.18248 4.59768 0 3.1402 0Z" fill="#1F293E"/>
</svg>
