<svg width="14" height="12" viewBox="0 0 14 12" fill="none" xmlns="http://www.w3.org/2000/svg">
<path d="M0.5 1C0.5 0.867392 0.552678 0.740215 0.646447 0.646447C0.740215 0.552678 0.867392 0.5 1 0.5H13C13.1326 0.5 13.2598 0.552679 13.3536 0.646447C13.4473 0.740214 13.5 0.867391 13.5 1C13.5 1.13261 13.4473 1.25979 13.3536 1.35355C13.2598 1.44732 13.1326 1.5 13 1.5H1C0.867392 1.5 0.740215 1.44732 0.646447 1.35355C0.552678 1.25978 0.5 1.13261 0.5 1ZM0.5 6C0.5 5.86739 0.552678 5.74021 0.646447 5.64645C0.740215 5.55268 0.867392 5.5 1 5.5H13C13.1326 5.5 13.2598 5.55268 13.3536 5.64645C13.4473 5.74021 13.5 5.86739 13.5 6C13.5 6.13261 13.4473 6.25979 13.3536 6.35355C13.2598 6.44732 13.1326 6.5 13 6.5H1C0.867392 6.5 0.740215 6.44732 0.646447 6.35355C0.552678 6.25979 0.5 6.13261 0.5 6ZM0.5 11C0.5 10.8674 0.552678 10.7402 0.646447 10.6464C0.740215 10.5527 0.867392 10.5 1 10.5H13C13.1326 10.5 13.2598 10.5527 13.3536 10.6464C13.4473 10.7402 13.5 10.8674 13.5 11C13.5 11.1326 13.4473 11.2598 13.3536 11.3536C13.2598 11.4473 13.1326 11.5 13 11.5H1C0.867392 11.5 0.740215 11.4473 0.646447 11.3536C0.552678 11.2598 0.5 11.1326 0.5 11Z" fill="#1F293E" stroke="#1F293E"/>
</svg>