<svg width="43" height="39" viewBox="0 0 43 39" fill="none" xmlns="http://www.w3.org/2000/svg">
<path fill-rule="evenodd" clip-rule="evenodd" d="M8.14286 19.004H14.9286C17.1763 19.004 19 20.8277 19 23.0755V33.9326C19 36.1804 17.1763 38.004 14.9286 38.004H4.07143C1.82366 38.004 0 36.1804 0 33.9326V13.5755C0 6.07724 6.07321 0.00402832 13.5714 0.00402832H14.25C15.3781 0.00402832 16.2857 0.911618 16.2857 2.03974V6.11117C16.2857 7.2393 15.3781 8.14689 14.25 8.14689H13.5714C10.5772 8.14689 8.14286 10.5813 8.14286 13.5755V19.004ZM32.1429 19.004H38.9286C41.1763 19.004 43 20.8277 43 23.0755V33.9326C43 36.1804 41.1763 38.004 38.9286 38.004H28.0714C25.8237 38.004 24 36.1804 24 33.9326V13.5755C24 6.07724 30.0732 0.00402832 37.5714 0.00402832H38.25C39.3781 0.00402832 40.2857 0.911618 40.2857 2.03974V6.11117C40.2857 7.2393 39.3781 8.14689 38.25 8.14689H37.5714C34.5772 8.14689 32.1429 10.5813 32.1429 13.5755V19.004Z" fill="#6022FF"/>
</svg>
