<svg width="25" height="20" viewBox="0 0 25 20" fill="none" xmlns="http://www.w3.org/2000/svg">
<path d="M24.5776 2.36559C23.6559 2.76498 22.7035 3.04147 21.6897 3.16436C22.7343 2.54992 23.533 1.56682 23.9017 0.368664C22.9186 0.952381 21.8433 1.35177 20.7066 1.59754C19.7849 0.61444 18.4639 0 17.02 0C14.2243 0 11.9816 2.27343 11.9816 5.0384C11.9816 5.43779 12.0123 5.80645 12.1045 6.17512C7.92627 5.99078 4.23963 3.96313 1.75115 0.921659C-0.0307218 4.11674 1.96621 6.75883 3.28725 7.64977C2.48848 7.64977 1.68971 7.404 1.01382 7.03533C1.01382 9.52381 2.76498 11.5822 5.0384 12.043C4.54685 12.1966 3.44086 12.2888 2.76498 12.1352C3.41014 14.1321 5.28418 15.6068 7.46544 15.6375C5.74501 16.9892 3.22581 18.0645 0 17.7266C2.2427 19.1705 4.88479 20 7.74193 20C17.02 20 22.0584 12.3195 22.0584 5.68356C22.0584 5.46851 22.0584 5.25346 22.0276 5.0384C23.0722 4.27035 23.9324 3.37942 24.5776 2.36559Z" fill="#1F293E"/>
</svg>
