<svg width="170" height="184" viewBox="0 0 170 184" fill="none" xmlns="http://www.w3.org/2000/svg">
<path d="M14.5974 117.518L17.0616 118.222L18.4103 115.789C19.0086 115.849 19.6069 115.859 20.195 115.819L21.4525 118.292L23.9369 117.679L23.8761 114.904C24.4135 114.663 24.9408 114.371 25.4377 114.049L27.7802 115.567L29.6258 113.808L28.1757 111.445C28.5205 110.973 28.8247 110.46 29.0883 109.927L31.877 110.088L32.5869 107.645L30.1328 106.308C30.1937 105.715 30.2038 105.122 30.1633 104.538L32.6579 103.292L32.0393 100.829L29.2405 100.889C28.9971 100.356 28.703 99.8333 28.3785 99.3407L29.9097 97.0183L28.1351 95.1885L25.7521 96.6262C25.2755 96.2844 24.7583 95.9828 24.2208 95.7214L24.3831 92.9566L21.9189 92.2528L20.5601 94.706C19.9618 94.6456 19.3635 94.6356 18.7753 94.6758L17.5179 92.2026L15.0334 92.8159L15.0943 95.5907C14.5568 95.832 14.0295 96.1235 13.5326 96.4452L11.1901 94.9271L9.34455 96.6865L10.7947 99.0492C10.4499 99.5217 10.1457 100.034 9.882 100.567L7.09333 100.406L6.38348 102.849L8.83752 104.177C8.77667 104.77 8.76653 105.363 8.80709 105.946L6.3125 107.193L6.93108 109.656L9.72989 109.595C9.97327 110.128 10.2673 110.651 10.5918 111.144L9.06061 113.466L10.8352 115.296L13.2183 113.858C13.6949 114.2 14.212 114.502 14.7495 114.763L14.5974 117.518ZM13.1473 103.453C14.1512 99.9842 17.8018 97.9734 21.3003 98.9687C24.7989 99.964 26.827 103.583 25.8231 107.052C24.8191 110.52 21.1685 112.531 17.67 111.536C14.1613 110.541 12.1434 106.921 13.1473 103.453Z" fill="white"/>
<path d="M21.4423 118.523C21.3612 118.523 21.2801 118.473 21.2395 118.403L20.053 116.06C19.5562 116.09 19.039 116.08 18.532 116.03L17.2644 118.332C17.2137 118.423 17.1021 118.473 17.0007 118.443L14.5365 117.739C14.4351 117.709 14.3642 117.618 14.3743 117.508L14.5264 114.884C14.0701 114.653 13.634 114.391 13.2183 114.11L10.9569 115.467C10.8656 115.517 10.7541 115.507 10.6831 115.427L8.9085 113.597C8.83751 113.526 8.82737 113.406 8.87808 113.315L10.3282 111.124C10.0544 110.701 9.80087 110.259 9.58792 109.807L6.94122 109.867C6.83981 109.867 6.74854 109.797 6.72826 109.696L6.10968 107.233C6.0894 107.132 6.12997 107.032 6.23137 106.982L8.59414 105.805C8.56372 105.313 8.57386 104.8 8.62456 104.297L6.30236 103.04C6.21109 102.99 6.17053 102.88 6.19081 102.779L6.90065 100.336C6.93108 100.235 7.0122 100.165 7.13389 100.175L9.78059 100.326C10.0138 99.8736 10.2775 99.4412 10.5614 99.029L9.19243 96.7871C9.14173 96.6966 9.15187 96.586 9.233 96.5156L11.0786 94.7562C11.1496 94.6858 11.2713 94.6758 11.3625 94.7261L13.5732 96.1637C13.9991 95.8923 14.4453 95.6409 14.9016 95.4298L14.8408 92.8058C14.8408 92.7053 14.9117 92.6148 15.0132 92.5846L17.4976 91.9713C17.599 91.9412 17.7004 91.9914 17.7511 92.092L18.9376 94.4345C19.4345 94.4043 19.9516 94.4144 20.4587 94.4647L21.7364 92.1624C21.7871 92.0719 21.8986 92.0317 22 92.0518L24.4642 92.7555C24.5656 92.7857 24.6366 92.8762 24.6265 92.9868L24.4338 95.6108C24.8901 95.842 25.3262 96.1034 25.7419 96.3849L28.0033 95.0277C28.0946 94.9774 28.2061 94.9875 28.2771 95.0679L30.0517 96.8977C30.1227 96.968 30.1328 97.0887 30.0821 97.1792L28.632 99.3709C28.9058 99.7931 29.1593 100.235 29.3723 100.688L32.019 100.628C32.1204 100.628 32.2117 100.698 32.2319 100.798L32.8505 103.262C32.8708 103.362 32.8302 103.463 32.7288 103.513L30.3661 104.689C30.3965 105.182 30.3863 105.695 30.3356 106.197L32.6578 107.464C32.7491 107.514 32.7897 107.625 32.7694 107.726L32.0595 110.169C32.0291 110.269 31.9379 110.339 31.8263 110.329L29.1796 110.179C28.9464 110.631 28.6827 111.063 28.3988 111.476L29.7678 113.718C29.8185 113.808 29.8083 113.919 29.7272 113.989L27.8816 115.748C27.8106 115.819 27.6889 115.829 27.5977 115.779L25.387 114.341C24.9611 114.612 24.5149 114.864 24.0586 115.075L24.1194 117.699C24.1194 117.799 24.0485 117.89 23.947 117.92L21.4626 118.533C21.4829 118.523 21.4626 118.523 21.4423 118.523ZM20.1849 115.598C20.266 115.598 20.3471 115.648 20.3877 115.718L21.564 118.031L23.7037 117.498L23.6428 114.904C23.6428 114.813 23.6935 114.733 23.7747 114.693C24.302 114.451 24.8191 114.17 25.2958 113.858C25.3667 113.808 25.4681 113.808 25.5391 113.858L27.7295 115.286L29.3114 113.768L27.9526 111.556C27.9019 111.476 27.912 111.385 27.9627 111.315C28.2974 110.852 28.6016 110.35 28.8551 109.827C28.8957 109.746 28.9768 109.696 29.0681 109.706L31.6843 109.857L32.2928 107.756L30.001 106.509C29.9199 106.469 29.8793 106.378 29.8895 106.288C29.9503 105.705 29.9604 105.122 29.9199 104.559C29.9097 104.468 29.9604 104.388 30.0416 104.347L32.3739 103.181L31.8365 101.06L29.2202 101.12C29.1289 101.12 29.0478 101.07 29.0072 100.99C28.774 100.467 28.4799 99.954 28.1655 99.4815C28.1148 99.4111 28.1148 99.3105 28.1655 99.2402L29.6055 97.0686L28.0844 95.5002L25.8535 96.8474C25.7724 96.8977 25.6811 96.8876 25.6101 96.8373C25.1436 96.5056 24.6366 96.204 24.1093 95.9526C24.0282 95.9124 23.9775 95.832 23.9876 95.7415L24.1397 93.1476L22.0203 92.5444L20.7629 94.8165C20.7223 94.897 20.6412 94.9372 20.5398 94.9271C19.9516 94.8668 19.3635 94.8568 18.7956 94.897C18.7043 94.907 18.6232 94.8568 18.5827 94.7763L17.4063 92.464L15.2667 92.9968L15.3275 95.5907C15.3275 95.6812 15.2768 95.7616 15.1957 95.8018C14.6684 96.033 14.1512 96.3246 13.6746 96.6363C13.6036 96.6865 13.5022 96.6865 13.4312 96.6363L11.2307 95.2086L9.64876 96.7167L11.0076 98.9285C11.0583 99.0089 11.0482 99.0994 10.9975 99.1698C10.6628 99.6323 10.3586 100.135 10.1051 100.658C10.0645 100.738 9.9834 100.788 9.89214 100.778L7.27586 100.628L6.66742 102.729L8.9592 103.975C9.04033 104.016 9.08089 104.106 9.07075 104.197C9.0099 104.78 8.99976 105.363 9.04033 105.926C9.05047 106.016 8.99976 106.097 8.91864 106.137L6.58629 107.303L7.12375 109.425L9.74003 109.364C9.83129 109.364 9.91242 109.415 9.95298 109.495C10.1862 110.018 10.4702 110.53 10.7947 111.003C10.8454 111.073 10.8454 111.174 10.7947 111.244L9.35469 113.416L10.8859 114.984L13.1169 113.637C13.198 113.587 13.2892 113.597 13.3602 113.647C13.8267 113.979 14.3236 114.281 14.861 114.532C14.9422 114.572 14.9929 114.653 14.9827 114.743L14.8306 117.337L16.95 117.94L18.2075 115.668C18.248 115.588 18.3393 115.547 18.4305 115.557C19.0187 115.618 19.6069 115.628 20.1747 115.588C20.1747 115.598 20.1849 115.598 20.1849 115.598ZM19.4953 112.008C18.8666 112.008 18.2277 111.918 17.6092 111.747C13.9991 110.722 11.9 106.971 12.9343 103.392C13.4312 101.653 14.5872 100.215 16.1793 99.3407C17.7714 98.466 19.617 98.2549 21.3612 98.7576C24.9713 99.7831 27.0704 103.533 26.036 107.112C25.5391 108.852 24.3831 110.289 22.791 111.164C21.7567 111.727 20.6311 112.008 19.4953 112.008ZM13.3602 103.513C12.3969 106.861 14.354 110.36 17.7207 111.325C19.3533 111.787 21.0772 111.596 22.5578 110.782C24.0485 109.967 25.1234 108.62 25.5898 107.002C26.5532 103.654 24.596 100.155 21.2294 99.1899C19.5967 98.7274 17.8728 98.9185 16.3923 99.7328C14.9117 100.547 13.8267 101.884 13.3602 103.513Z" fill="#3100AE"/>
<path d="M14.3845 165.816L18.5928 167.012L20.8948 162.85C21.919 162.951 22.9432 162.971 23.9471 162.91L26.0969 167.143L30.3458 166.097L30.2343 161.352C31.1672 160.94 32.0494 160.447 32.9013 159.884L36.9068 162.488L40.0605 159.472L37.5761 155.42C38.1642 154.606 38.6916 153.741 39.1479 152.826L43.9241 153.098L45.1309 148.926L40.9326 146.643C41.034 145.628 41.0543 144.613 40.9935 143.617L45.2627 141.486L44.2081 137.273L39.4217 137.384C39.0059 136.459 38.509 135.584 37.9412 134.74L40.5676 130.769L37.5254 127.642L33.4387 130.105C32.6173 129.522 31.7452 128.999 30.8224 128.547L31.0962 123.811L26.8879 122.615L24.5859 126.777C23.5617 126.677 22.5375 126.657 21.5336 126.717L19.3838 122.484L15.1349 123.53L15.2464 128.275C14.3135 128.688 13.4313 129.18 12.5794 129.743L8.57389 127.139L5.42016 130.155L7.90461 134.207C7.31646 135.021 6.78914 135.886 6.33282 136.801L1.55658 136.529L0.349846 140.702L4.54807 142.984C4.44666 143.999 4.42638 145.015 4.48722 146.01L0.218018 148.141L1.27264 152.354L6.05902 152.243C6.47478 153.168 6.97168 154.043 7.53955 154.887L4.91313 158.859L7.95532 161.985L12.042 159.522C12.8634 160.105 13.7355 160.628 14.6583 161.081L14.3845 165.816ZM11.9 141.727C13.6138 135.795 19.8604 132.357 25.8535 134.066C31.8365 135.765 35.3046 141.958 33.5807 147.9C31.8669 153.832 25.6203 157.27 19.6272 155.561C13.6442 153.852 10.1863 147.659 11.9 141.727Z" fill="white"/>
<path d="M26.0969 167.364C26.0158 167.364 25.9347 167.314 25.8941 167.243L23.8153 163.142C22.9026 163.192 21.9595 163.172 21.0266 163.091L18.7957 167.123C18.7449 167.213 18.6334 167.264 18.532 167.233L14.3236 166.037C14.2222 166.007 14.1512 165.916 14.1614 165.806L14.425 161.221C13.5834 160.799 12.7823 160.327 12.0319 159.804L8.07701 162.186C7.98574 162.237 7.8742 162.227 7.80321 162.146L4.76102 159.02C4.69004 158.949 4.6799 158.829 4.7306 158.738L7.2759 154.898C6.76887 154.123 6.31254 153.319 5.9272 152.475L1.29293 152.575C1.18138 152.575 1.10026 152.505 1.06984 152.404L0.00507031 148.192C-0.0152109 148.091 0.0253516 147.991 0.126758 147.94L4.25399 145.879C4.20329 144.975 4.22357 144.04 4.3047 143.115L0.238305 140.903C0.147039 140.852 0.106477 140.742 0.126758 140.641L1.33349 136.469C1.36391 136.369 1.44504 136.298 1.56673 136.308L6.20099 136.57C6.6269 135.735 7.10351 134.941 7.63082 134.197L5.22749 130.276C5.17679 130.186 5.18693 130.075 5.26806 130.005L8.42179 126.988C8.49277 126.918 8.61446 126.908 8.70573 126.958L12.5794 129.482C13.3603 128.979 14.1715 128.527 15.0233 128.145L14.9219 123.55C14.9219 123.45 14.9929 123.359 15.0943 123.329L19.3432 122.283C19.4447 122.253 19.5461 122.303 19.5968 122.404L21.6756 126.506C22.5882 126.456 23.5313 126.476 24.4643 126.556L26.6952 122.525C26.7459 122.434 26.8575 122.394 26.9589 122.414L31.1672 123.61C31.2686 123.641 31.3396 123.731 31.3295 123.842L31.0658 128.426C31.9075 128.848 32.7086 129.321 33.459 129.844L37.4138 127.461C37.5051 127.411 37.6167 127.421 37.6876 127.501L40.7298 130.628C40.8008 130.698 40.811 130.819 40.7603 130.909L38.215 134.75C38.722 135.524 39.1783 136.328 39.5637 137.173L44.1979 137.072C44.2993 137.072 44.3906 137.143 44.4109 137.243L45.4655 141.456C45.4858 141.556 45.4452 141.657 45.3438 141.707L41.2064 143.768C41.2571 144.673 41.2369 145.608 41.1557 146.533L45.2221 148.745C45.3134 148.795 45.354 148.906 45.3337 149.006L44.1269 153.178C44.0965 153.279 44.0053 153.349 43.8937 153.339L39.2696 153.078C38.8437 153.912 38.3671 154.707 37.8398 155.45L40.2431 159.371C40.2938 159.462 40.2836 159.573 40.2025 159.643L37.0488 162.659C36.9778 162.729 36.8561 162.739 36.7648 162.689L32.8911 160.166C32.1103 160.668 31.299 161.121 30.4472 161.503L30.5486 166.097C30.5486 166.198 30.4777 166.288 30.3763 166.319L26.1273 167.364C26.1375 167.364 26.1172 167.364 26.0969 167.364ZM23.9471 162.679C24.0282 162.679 24.1093 162.729 24.1499 162.8L26.2186 166.872L30.1227 165.906L30.0213 161.342C30.0213 161.251 30.072 161.171 30.1532 161.131C31.0658 160.719 31.9582 160.236 32.7897 159.683C32.8607 159.633 32.9621 159.633 33.0331 159.683L36.8865 162.186L39.7766 159.412L37.3834 155.511C37.3327 155.43 37.3429 155.34 37.3936 155.27C37.9716 154.475 38.4888 153.611 38.9451 152.706C38.9856 152.625 39.0668 152.575 39.158 152.585L43.7517 152.847L44.8571 149.016L40.8211 146.824C40.74 146.784 40.6994 146.694 40.7095 146.603C40.811 145.598 40.8312 144.592 40.7704 143.617C40.7603 143.527 40.811 143.446 40.8921 143.406L44.999 141.355L44.0255 137.484L39.4217 137.585C39.3304 137.585 39.2493 137.535 39.2087 137.454C38.793 136.549 38.3062 135.665 37.7485 134.84C37.6978 134.77 37.6978 134.669 37.7485 134.599L40.2735 130.779L37.4747 127.913L33.5604 130.296C33.4793 130.346 33.388 130.336 33.317 130.286C32.5159 129.713 31.6438 129.2 30.7312 128.748C30.65 128.708 30.5993 128.627 30.6095 128.537L30.8731 123.982L27.0096 122.887L24.7989 126.888C24.7583 126.968 24.6671 127.009 24.5758 126.998C23.5617 126.898 22.5477 126.878 21.564 126.938C21.4728 126.948 21.3917 126.898 21.3511 126.818L19.2824 122.746L15.3783 123.711L15.4797 128.275C15.4797 128.366 15.429 128.446 15.3478 128.486C14.4352 128.899 13.5529 129.381 12.7113 129.934C12.6403 129.984 12.5389 129.984 12.4679 129.934L8.61446 127.431L5.72438 130.206L8.11757 134.106C8.16827 134.187 8.15813 134.277 8.10743 134.348C7.52942 135.142 7.01224 136.007 6.55592 136.911C6.51535 136.992 6.43423 137.042 6.34296 137.032L1.74926 136.771L0.64393 140.601L4.6799 142.793C4.76102 142.833 4.80159 142.924 4.79145 143.014C4.69004 144.019 4.66976 145.025 4.7306 146C4.74074 146.09 4.69004 146.171 4.60892 146.211L0.501961 148.262L1.47546 152.133L6.07931 152.032C6.17057 152.032 6.2517 152.082 6.29226 152.163C6.70802 153.068 7.19478 153.942 7.75251 154.777C7.80321 154.847 7.80321 154.948 7.75251 155.018L5.22749 158.839L8.02631 161.704L11.9609 159.331C12.042 159.281 12.1333 159.291 12.2042 159.341C13.0054 159.914 13.8774 160.427 14.7901 160.879C14.8712 160.92 14.9219 161 14.9118 161.091L14.6481 165.645L18.5117 166.741L20.7224 162.739C20.7629 162.659 20.8441 162.619 20.9455 162.629C21.9595 162.729 22.9736 162.749 23.9572 162.689C23.937 162.689 23.9471 162.679 23.9471 162.679ZM22.7404 156.215C21.6959 156.215 20.6311 156.074 19.5765 155.772C16.6256 154.928 14.1715 152.997 12.691 150.333C11.2003 147.669 10.8454 144.592 11.6972 141.657C12.549 138.731 14.496 136.298 17.1833 134.83C19.8706 133.352 22.9736 133.001 25.9347 133.845C28.8856 134.69 31.3396 136.62 32.8201 139.284C34.3108 141.948 34.6657 145.025 33.8139 147.96C32.3537 152.957 27.7397 156.215 22.7404 156.215ZM11.9 141.727L12.113 141.787C11.3017 144.603 11.6364 147.558 13.0662 150.122C14.496 152.686 16.8487 154.536 19.688 155.34C20.7021 155.631 21.7263 155.762 22.7302 155.762C27.5369 155.762 31.9683 152.625 33.3576 147.82C34.1688 145.005 33.8342 142.049 32.4044 139.485C30.9745 136.921 28.6219 135.072 25.7825 134.267C22.9432 133.463 19.9618 133.795 17.376 135.212C14.7901 136.63 12.9242 138.962 12.113 141.777L11.9 141.727Z" fill="#3100AE"/>
<path d="M102.405 108.58C104.21 106.197 92.2848 101.935 92.447 93.5599C92.589 85.909 102.659 83.9486 102.365 76.9411C102.05 69.4411 90.3682 67.9732 90.3581 60.3324C90.3581 54.4409 97.2841 53.5562 97.852 47.2525C98.5314 39.6821 88.7254 38.6767 85.5311 28.6833C82.5498 19.3535 89.3947 14.8595 84.4055 7.46999C83.7565 6.51488 79.7003 0.76416 73.9607 0.68373C64.611 0.542978 52.5335 15.4225 54.3183 28.3013C55.8089 39.1392 66.0104 40.4462 66.6087 51.9677C67.1157 61.7299 59.9159 63.3586 62.2584 70.929C65.0268 79.8869 76.0294 80.5906 78.2907 90.6946C79.4772 95.9829 76.8305 97.4608 79.0006 101.201C83.5841 109.103 100.407 111.204 102.405 108.58Z" fill="white"/>
<path d="M98.1156 109.877C97.6796 109.877 97.2233 109.867 96.7365 109.837C91.3214 109.505 82.0732 106.961 78.7977 101.311C77.591 99.2302 77.8242 97.8025 78.098 96.1537C78.3313 94.7462 78.5949 93.1477 78.0575 90.7448C76.8913 85.527 73.2914 82.8125 69.803 80.1784C66.6391 77.7856 63.3637 75.3224 62.0252 70.9994C60.7981 67.0281 62.1164 64.6856 63.6375 61.9812C65.0268 59.4979 66.6087 56.6829 66.3653 51.9878C66.0611 46.0661 63.242 42.9495 60.2607 39.6519C57.5734 36.676 54.805 33.6096 54.0749 28.3414C52.9594 20.2583 57.1779 12.2153 61.4877 7.37946C65.4628 2.92566 70.0058 0.412236 73.9404 0.472558C79.68 0.552988 83.8072 6.23334 84.5678 7.3694C87.2855 11.3909 86.5553 14.6382 85.7745 18.0666C85.0748 21.153 84.3548 24.3401 85.7238 28.633C87.2449 33.4085 90.3074 36.113 92.9946 38.4957C95.8948 41.0594 98.4097 43.2813 98.0447 47.2927C97.7607 50.5099 95.8746 52.3296 94.0493 54.089C92.2442 55.8283 90.5507 57.4771 90.5507 60.3424C90.5507 64.1025 93.4205 66.2942 96.4627 68.6066C99.3832 70.8284 102.395 73.1307 102.557 76.931C102.709 80.5102 100.306 82.7421 97.7506 85.1148C95.2763 87.4171 92.7107 89.7998 92.6397 93.5599C92.5484 98.446 96.6757 101.915 99.6874 104.448C101.847 106.268 103.409 107.575 102.547 108.711C102.01 109.465 100.418 109.877 98.1156 109.877ZM73.839 0.904868C70.1072 0.904868 65.6352 3.41829 61.8426 7.66096C57.5937 12.4164 53.436 20.3286 54.5312 28.261C55.2411 33.3884 57.9689 36.4045 60.6055 39.3302C63.5057 42.5473 66.5073 45.8651 66.8217 51.9476C67.0752 56.7733 65.4628 59.6487 64.033 62.1822C62.5626 64.8063 61.295 67.0683 62.4612 70.8586C63.7592 75.051 66.8318 77.3633 70.087 79.8165C73.6362 82.4907 77.2969 85.2555 78.5037 90.6342C79.0614 93.1175 78.7876 94.7663 78.5442 96.2141C78.2704 97.8428 78.0575 99.1397 79.1831 101.08C82.3673 106.579 91.4431 109.053 96.7568 109.384C99.5455 109.555 101.645 109.193 102.212 108.439C102.821 107.645 101.32 106.388 99.4136 104.79C96.3309 102.196 92.1124 98.6471 92.2037 93.5498C92.2746 89.5987 94.9112 87.1557 97.4565 84.783C99.9308 82.4807 102.263 80.3191 102.121 76.9411C101.969 73.3419 99.1703 71.2105 96.2092 68.9484C93.2177 66.6662 90.1248 64.3036 90.1248 60.3324C90.1248 57.276 91.9704 55.4865 93.7552 53.7572C95.5196 52.0481 97.345 50.2887 97.6188 47.2324C97.9534 43.4421 95.5298 41.2906 92.7107 38.8074C89.9727 36.3844 86.8697 33.6498 85.308 28.7536C83.8985 24.3401 84.6692 20.952 85.3486 17.956C86.1396 14.4774 86.819 11.4613 84.2128 7.60064C83.4624 6.49473 79.467 0.985297 73.9505 0.904868C73.91 0.904868 73.8694 0.904868 73.839 0.904868Z" fill="#3100AE"/>
<path d="M98.6023 107.233C98.582 107.233 98.5617 107.233 98.5313 107.223C91.301 105.001 86.7479 101.874 84.9834 97.9232C83.6448 94.9272 84.4054 92.5042 85.2065 89.9405C86.0177 87.3668 86.8493 84.7025 85.6527 81.1536C84.3851 77.3935 82.1035 75.7045 79.9029 74.0758C77.7633 72.4873 75.7453 70.9893 74.8428 67.7821C73.5752 63.2479 75.9481 60.0207 78.25 56.904C80.481 53.8879 82.7829 50.7612 81.8905 46.3778C81.1705 42.8389 78.8483 40.7779 76.3841 38.5962C73.7172 36.2336 70.6953 33.5593 69.2857 28.5727C68.2311 24.8628 68.3426 20.9017 69.6102 16.7796C69.6508 16.659 69.7725 16.5987 69.8941 16.6288C70.0158 16.6691 70.0767 16.7897 70.0463 16.9103C68.8091 20.9419 68.6976 24.8226 69.7218 28.452C71.1009 33.3079 73.9403 35.8314 76.6884 38.2644C79.2134 40.4964 81.5964 42.6076 82.3367 46.2973C83.2595 50.8718 80.8967 54.0789 78.6151 57.1755C76.2726 60.3424 74.0619 63.3384 75.2788 67.6715C76.1408 70.7279 78.0979 72.1857 80.1666 73.7239C82.428 75.4028 84.7603 77.1321 86.0684 81.0229C87.3157 84.7126 86.4538 87.4472 85.6223 90.0813C84.8414 92.5645 84.1012 94.907 85.3789 97.7522C87.0927 101.573 91.5545 104.619 98.653 106.801C98.7747 106.841 98.8355 106.961 98.8051 107.082C98.7848 107.173 98.7037 107.233 98.6023 107.233Z" fill="#3100AE"/>
<path d="M106.695 141.104C107.506 139.264 97.1726 136.509 88.4821 123.54C83.2191 115.688 81.191 108.017 79.3555 100.819C74.8125 83.0035 78.5443 79.5148 73.7173 71.2205C67.927 61.2674 60.6258 65.0978 52.3814 54.8531C42.2205 42.2156 49.826 32.0312 39.4014 20.6504C33.7125 14.4271 23.5922 8.89757 14.6989 11.7327C9.32433 13.4519 3.69628 18.4486 3.55431 23.8977C3.41234 29.1558 8.47252 30.9051 12.4375 37.2993C19.5157 48.7203 11.0787 55.5669 15.5811 67.1488C21.6959 82.8627 40.9124 79.6958 49.1364 98.4158C52.4423 105.956 49.6029 107.102 52.5335 114.301C62.4308 138.601 105.082 144.743 106.695 141.104Z" fill="white"/>
<path d="M102.547 142.3C102.415 142.3 102.293 142.3 102.162 142.3C96.1989 142.21 85.7845 140.169 75.9583 135.785C67.6429 132.076 56.7925 125.35 52.3205 114.391C50.8805 110.862 50.8196 108.751 50.7487 106.7C50.6777 104.468 50.6067 102.357 48.9233 98.5063C44.7048 88.8849 37.6165 85.1147 30.7716 81.4753C24.3932 78.0872 18.3595 74.8801 15.3782 67.2292C13.2993 61.8806 13.9483 57.5173 14.577 53.3048C15.3275 48.288 16.0474 43.5426 12.2447 37.4199C10.6932 34.9165 8.97942 33.137 7.46847 31.5586C5.1057 29.1055 3.23983 27.1651 3.33109 23.8876C3.4832 18.3581 9.19237 13.2508 14.6379 11.5215C23.5312 8.6864 33.7935 14.1858 39.5737 20.4995C44.8874 26.3106 45.5465 31.7195 46.2361 37.44C46.8952 42.8791 47.5746 48.5092 52.5638 54.7123C56.539 59.6487 60.2099 61.2573 63.7692 62.8156C67.4401 64.4242 70.9082 65.9322 73.92 71.1099C76.4856 75.5134 76.658 78.5295 76.9115 83.0839C77.1447 87.2059 77.4286 92.3333 79.5886 100.758C81.3429 107.635 83.3305 115.437 88.6847 123.419C94.1708 131.613 100.255 135.665 103.886 138.088C106.086 139.556 107.293 140.36 106.918 141.204C106.502 142.089 104.393 142.3 102.547 142.3ZM19.6981 11.1998C18.035 11.1998 16.3821 11.4311 14.7697 11.9438C9.47631 13.6328 3.91925 18.5692 3.77728 23.8977C3.69615 26.9942 5.50119 28.8743 7.79297 31.2469C9.3242 32.8354 11.0582 34.6451 12.63 37.1786C16.5139 43.4421 15.7838 48.2679 15.0232 53.3651C14.3945 57.5173 13.7557 61.8203 15.7939 67.0583C18.7144 74.5583 24.6771 77.7253 30.9846 81.0731C37.9005 84.7528 45.0598 88.5531 49.3493 98.3153C51.0732 102.246 51.1441 104.488 51.2151 106.67C51.276 108.681 51.347 110.752 52.7565 114.21C60.4532 133.111 89.2121 141.657 102.182 141.848C105.082 141.888 106.309 141.446 106.502 141.013C106.725 140.511 105.427 139.646 103.632 138.45C99.9713 136.007 93.8463 131.925 88.3095 123.661C82.9147 115.618 80.917 107.776 79.1525 100.869C76.9926 92.4037 76.6985 87.2461 76.4653 83.104C76.2118 78.61 76.0495 75.6341 73.5346 71.321C70.5939 66.2741 67.3489 64.8565 63.5968 63.2077C60.1592 61.7097 56.2652 60.0005 52.219 54.9737C47.1589 48.6801 46.4693 42.9897 45.8 37.4802C45.1206 31.83 44.4716 26.4815 39.2492 20.781C34.6048 15.7341 27.05 11.1998 19.6981 11.1998Z" fill="#3100AE"/>
<path d="M99.2514 140.229C99.221 140.229 99.1905 140.219 99.1601 140.209C90.6724 136.68 83.8782 132.508 78.9701 127.823C74.995 124.023 72.1658 119.78 70.5331 115.195C68.8295 110.4 68.6368 105.866 68.4543 101.482C68.1805 94.9171 67.9168 88.7139 62.6437 82.4404C58.9322 78.0168 55.0484 76.2674 51.2963 74.5784C47.1083 72.6883 43.1636 70.9088 40.4459 65.52C38.5597 61.77 38.5192 58.7539 38.4887 55.2552C38.4482 51.8067 38.4076 47.9059 36.6938 42.1652C34.9902 36.4849 32.2624 31.076 28.5712 26.0894C28.5002 25.9888 28.5205 25.8481 28.6219 25.7777C28.7233 25.7073 28.8653 25.7274 28.9363 25.828C32.6579 30.8548 35.4161 36.314 37.1299 42.0446C38.8639 47.8456 38.9045 51.7866 38.9451 55.2652C38.9856 58.8443 39.016 61.6694 40.8616 65.329C43.5083 70.5871 47.2097 72.256 51.4992 74.1863C55.1194 75.815 59.2365 77.6649 63.0088 82.169C68.3732 88.5631 68.6368 94.8366 68.9208 101.482C69.1033 105.835 69.296 110.339 70.9793 115.065C74.559 125.149 84.1013 133.483 99.3528 139.817C99.4643 139.867 99.5252 139.998 99.4745 140.108C99.4238 140.179 99.3426 140.229 99.2514 140.229Z" fill="#3100AE"/>
<path d="M158.189 142.33H87.6201V0H157.672C159.69 0 161.322 1.61865 161.322 3.61934V139.234C161.322 140.943 159.923 142.33 158.189 142.33Z" fill="#3100AE"/>
<path d="M153.97 142.451H86.1192C84.5069 142.451 83.1987 141.154 83.1987 139.556V3.14681C83.1987 1.54827 84.5069 0.251343 86.1192 0.251343H153.97C155.583 0.251343 156.891 1.54827 156.891 3.14681V139.556C156.901 141.154 155.593 142.451 153.97 142.451Z" fill="white"/>
<path d="M105.123 54.5816H96.7974C96.2397 54.5816 95.7833 54.1292 95.7833 53.5762V46.0762C95.7833 45.5232 96.2397 45.0708 96.7974 45.0708H105.123C105.681 45.0708 106.137 45.5232 106.137 46.0762V53.5762C106.127 54.1292 105.681 54.5816 105.123 54.5816Z" fill="#3100AE"/>
<path d="M118.245 54.5816H109.808C109.25 54.5816 108.794 54.1292 108.794 53.5762V46.0762C108.794 45.5232 109.25 45.0708 109.808 45.0708H118.245C118.802 45.0708 119.259 45.5232 119.259 46.0762V53.5762C119.259 54.1292 118.802 54.5816 118.245 54.5816Z" fill="#3100AE"/>
<path d="M131.296 54.7023H123.082C122.524 54.7023 122.068 54.2499 122.068 53.6969V46.1968C122.068 45.6439 122.524 45.1915 123.082 45.1915H131.296C131.853 45.1915 132.31 45.6439 132.31 46.1968V53.6969C132.31 54.2499 131.853 54.7023 131.296 54.7023Z" fill="#3100AE"/>
<path d="M144.195 54.7023H135.981C135.423 54.7023 134.967 54.2499 134.967 53.6969V46.1968C134.967 45.6439 135.423 45.1915 135.981 45.1915H144.195C144.752 45.1915 145.209 45.6439 145.209 46.1968V53.6969C145.209 54.2499 144.752 54.7023 144.195 54.7023Z" fill="#3100AE"/>
<path d="M105.123 67.4905H96.7974C96.2397 67.4905 95.7833 67.0381 95.7833 66.4852V58.9851C95.7833 58.4322 96.2397 57.9797 96.7974 57.9797H105.123C105.681 57.9797 106.137 58.4322 106.137 58.9851V66.4852C106.127 67.0381 105.681 67.4905 105.123 67.4905Z" fill="#3100AE"/>
<path d="M118.245 67.4905H109.808C109.25 67.4905 108.794 67.0381 108.794 66.4852V58.9851C108.794 58.4322 109.25 57.9797 109.808 57.9797H118.245C118.802 57.9797 119.259 58.4322 119.259 58.9851V66.4852C119.259 67.0381 118.802 67.4905 118.245 67.4905Z" fill="#3100AE"/>
<path d="M131.296 67.6112H123.082C122.524 67.6112 122.068 67.1588 122.068 66.6059V59.1158C122.068 58.5629 122.524 58.1105 123.082 58.1105H131.296C131.853 58.1105 132.31 58.5629 132.31 59.1158V66.6159C132.31 67.1588 131.853 67.6112 131.296 67.6112Z" fill="#3100AE"/>
<path d="M144.195 67.6112H135.981C135.423 67.6112 134.967 67.1588 134.967 66.6059V59.1158C134.967 58.5629 135.423 58.1105 135.981 58.1105H144.195C144.752 58.1105 145.209 58.5629 145.209 59.1158V66.6159C145.209 67.1588 144.752 67.6112 144.195 67.6112Z" fill="#3100AE"/>
<path d="M105.386 80.3995H97.0608C96.5031 80.3995 96.0468 79.9471 96.0468 79.3942V71.8941C96.0468 71.3411 96.5031 70.8887 97.0608 70.8887H105.386C105.944 70.8887 106.4 71.3411 106.4 71.8941V79.3942C106.39 79.9471 105.944 80.3995 105.386 80.3995Z" fill="#3100AE"/>
<path d="M118.295 80.3995H109.858C109.301 80.3995 108.844 79.9471 108.844 79.3942V71.8941C108.844 71.3411 109.301 70.8887 109.858 70.8887H118.295C118.853 70.8887 119.309 71.3411 119.309 71.8941V79.3942C119.299 79.9471 118.853 80.3995 118.295 80.3995Z" fill="#3100AE"/>
<path d="M131.559 80.5202H123.345C122.788 80.5202 122.331 80.0678 122.331 79.5148V72.0148C122.331 71.4618 122.788 71.0094 123.345 71.0094H131.559C132.117 71.0094 132.573 71.4618 132.573 72.0148V79.5249C132.573 80.0778 132.117 80.5202 131.559 80.5202Z" fill="#3100AE"/>
<path d="M144.458 80.5202H136.244C135.687 80.5202 135.23 80.0678 135.23 79.5148V72.0148C135.23 71.4618 135.687 71.0094 136.244 71.0094H144.458C145.016 71.0094 145.472 71.4618 145.472 72.0148V79.5249C145.462 80.0778 145.016 80.5202 144.458 80.5202Z" fill="#3100AE"/>
<path d="M105.386 93.3085H97.0608C96.5031 93.3085 96.0468 92.8561 96.0468 92.3032V84.8031C96.0468 84.2501 96.5031 83.7977 97.0608 83.7977H105.386C105.944 83.7977 106.4 84.2501 106.4 84.8031V92.3032C106.39 92.8561 105.944 93.3085 105.386 93.3085Z" fill="#3100AE"/>
<path d="M118.519 93.3085H110.082C109.524 93.3085 109.068 92.8561 109.068 92.3032V84.8031C109.068 84.2501 109.524 83.7977 110.082 83.7977H118.519C119.076 83.7977 119.533 84.2501 119.533 84.8031V92.3032C119.522 92.8561 119.076 93.3085 118.519 93.3085Z" fill="#3100AE"/>
<path d="M131.559 93.4291H123.345C122.788 93.4291 122.331 92.9767 122.331 92.4238V84.9237C122.331 84.3708 122.788 83.9183 123.345 83.9183H131.559C132.117 83.9183 132.573 84.3708 132.573 84.9237V92.4238C132.573 92.9868 132.117 93.4291 131.559 93.4291Z" fill="#3100AE"/>
<path d="M144.458 93.4291H136.244C135.687 93.4291 135.23 92.9767 135.23 92.4238V84.9237C135.23 84.3708 135.687 83.9183 136.244 83.9183H144.458C145.016 83.9183 145.472 84.3708 145.472 84.9237V92.4238C145.462 92.9868 145.016 93.4291 144.458 93.4291Z" fill="#3100AE"/>
<path d="M104.089 54.9636H96.5338C95.9761 54.9636 95.5198 54.5112 95.5198 53.9583V46.4582C95.5198 45.9052 95.9761 45.4528 96.5338 45.4528H104.099C104.656 45.4528 105.113 45.9052 105.113 46.4582V53.9583C105.103 54.5112 104.646 54.9636 104.089 54.9636Z" fill="white"/>
<path d="M104.089 55.1848H96.5237C95.8442 55.1848 95.2865 54.6319 95.2865 53.9583V46.4582C95.2865 45.7846 95.8442 45.2316 96.5237 45.2316H104.089C104.768 45.2316 105.326 45.7846 105.326 46.4582V53.9583C105.326 54.6319 104.768 55.1848 104.089 55.1848ZM96.5237 45.684C96.0876 45.684 95.7428 46.0359 95.7428 46.4582V53.9583C95.7428 54.3906 96.0978 54.7324 96.5237 54.7324H104.089C104.525 54.7324 104.869 54.3805 104.869 53.9583V46.4582C104.869 46.0259 104.514 45.684 104.089 45.684H96.5237Z" fill="#3100AE"/>
<path d="M117.109 54.9636H109.544C108.987 54.9636 108.53 54.5112 108.53 53.9583V46.4582C108.53 45.9052 108.987 45.4528 109.544 45.4528H117.109C117.667 45.4528 118.123 45.9052 118.123 46.4582V53.9583C118.123 54.5112 117.667 54.9636 117.109 54.9636Z" fill="white"/>
<path d="M117.109 55.1848H109.544C108.865 55.1848 108.307 54.6319 108.307 53.9583V46.4582C108.307 45.7846 108.865 45.2316 109.544 45.2316H117.109C117.788 45.2316 118.346 45.7846 118.346 46.4582V53.9583C118.346 54.6319 117.788 55.1848 117.109 55.1848ZM109.554 45.684C109.118 45.684 108.773 46.0359 108.773 46.4582V53.9583C108.773 54.3906 109.128 54.7324 109.554 54.7324H117.119C117.555 54.7324 117.9 54.3805 117.9 53.9583V46.4582C117.9 46.0259 117.545 45.684 117.119 45.684H109.554Z" fill="#3100AE"/>
<path d="M130.373 55.0842H122.808C122.25 55.0842 121.794 54.6318 121.794 54.0789V46.5788C121.794 46.0258 122.25 45.5734 122.808 45.5734H130.373C130.931 45.5734 131.387 46.0258 131.387 46.5788V54.0789C131.387 54.6318 130.931 55.0842 130.373 55.0842Z" fill="white"/>
<path d="M130.373 55.3054H122.808C122.129 55.3054 121.571 54.7525 121.571 54.0789V46.5788C121.571 45.9052 122.129 45.3522 122.808 45.3522H130.373C131.053 45.3522 131.61 45.9052 131.61 46.5788V54.0789C131.61 54.7625 131.063 55.3054 130.373 55.3054ZM122.818 45.8047C122.382 45.8047 122.038 46.1565 122.038 46.5788V54.0789C122.038 54.5112 122.392 54.853 122.818 54.853H130.383C130.819 54.853 131.164 54.5011 131.164 54.0789V46.5788C131.164 46.1465 130.809 45.8047 130.383 45.8047H122.818Z" fill="#3100AE"/>
<path d="M143.272 55.0842H135.707C135.149 55.0842 134.693 54.6318 134.693 54.0789V46.5788C134.693 46.0258 135.149 45.5734 135.707 45.5734H143.272C143.83 45.5734 144.286 46.0258 144.286 46.5788V54.0789C144.286 54.6318 143.83 55.0842 143.272 55.0842Z" fill="white"/>
<path d="M143.272 55.3054H135.707C135.028 55.3054 134.47 54.7525 134.47 54.0789V46.5788C134.47 45.9052 135.028 45.3522 135.707 45.3522H143.272C143.951 45.3522 144.509 45.9052 144.509 46.5788V54.0789C144.509 54.7525 143.951 55.3054 143.272 55.3054ZM135.717 45.8047C135.281 45.8047 134.936 46.1565 134.936 46.5788V54.0789C134.936 54.5112 135.291 54.853 135.717 54.853H143.282C143.718 54.853 144.063 54.5011 144.063 54.0789V46.5788C144.063 46.1465 143.708 45.8047 143.282 45.8047H135.717Z" fill="#3100AE"/>
<path d="M104.088 67.8726H96.5236C95.9658 67.8726 95.5095 67.4201 95.5095 66.8672V59.3671C95.5095 58.8142 95.9658 58.3618 96.5236 58.3618H104.088C104.646 58.3618 105.103 58.8142 105.103 59.3671V66.8672C105.103 67.4201 104.646 67.8726 104.088 67.8726Z" fill="white"/>
<path d="M104.089 68.0937H96.5237C95.8442 68.0937 95.2865 67.5408 95.2865 66.8672V59.3671C95.2865 58.6935 95.8442 58.1406 96.5237 58.1406H104.089C104.768 58.1406 105.326 58.6935 105.326 59.3671V66.8672C105.326 67.5408 104.768 68.0937 104.089 68.0937ZM96.5237 58.593C96.0876 58.593 95.7428 58.9449 95.7428 59.3671V66.8672C95.7428 67.2995 96.0978 67.6413 96.5237 67.6413H104.089C104.525 67.6413 104.869 67.2894 104.869 66.8672V59.3671C104.869 58.9348 104.514 58.593 104.089 58.593H96.5237Z" fill="#3100AE"/>
<path d="M117.109 67.8726H109.544C108.987 67.8726 108.53 67.4201 108.53 66.8672V59.3671C108.53 58.8142 108.987 58.3618 109.544 58.3618H117.109C117.667 58.3618 118.123 58.8142 118.123 59.3671V66.8672C118.123 67.4201 117.667 67.8726 117.109 67.8726Z" fill="white"/>
<path d="M117.109 68.0937H109.544C108.865 68.0937 108.307 67.5408 108.307 66.8672V59.3671C108.307 58.6935 108.865 58.1406 109.544 58.1406H117.109C117.788 58.1406 118.346 58.6935 118.346 59.3671V66.8672C118.346 67.5408 117.788 68.0937 117.109 68.0937ZM109.544 58.593C109.108 58.593 108.763 58.9449 108.763 59.3671V66.8672C108.763 67.2995 109.118 67.6413 109.544 67.6413H117.109C117.545 67.6413 117.89 67.2894 117.89 66.8672V59.3671C117.89 58.9348 117.535 58.593 117.109 58.593H109.544Z" fill="#3100AE"/>
<path d="M130.373 67.9932H122.808C122.25 67.9932 121.794 67.5408 121.794 66.9878V59.4877C121.794 58.9348 122.25 58.4824 122.808 58.4824H130.373C130.931 58.4824 131.387 58.9348 131.387 59.4877V66.9878C131.387 67.5408 130.931 67.9932 130.373 67.9932Z" fill="white"/>
<path d="M130.373 68.2144H122.808C122.129 68.2144 121.571 67.6614 121.571 66.9879V59.4878C121.571 58.8142 122.129 58.2612 122.808 58.2612H130.373C131.053 58.2612 131.61 58.8142 131.61 59.4878V66.9879C131.61 67.6715 131.063 68.2144 130.373 68.2144ZM122.818 58.7136C122.382 58.7136 122.038 59.0655 122.038 59.4878V66.9879C122.038 67.4202 122.392 67.762 122.818 67.762H130.383C130.819 67.762 131.164 67.4101 131.164 66.9879V59.4878C131.164 59.0555 130.809 58.7136 130.383 58.7136H122.818Z" fill="#3100AE"/>
<path d="M143.272 67.9932H135.707C135.149 67.9932 134.693 67.5408 134.693 66.9878V59.4877C134.693 58.9348 135.149 58.4824 135.707 58.4824H143.272C143.83 58.4824 144.286 58.9348 144.286 59.4877V66.9878C144.286 67.5408 143.83 67.9932 143.272 67.9932Z" fill="white"/>
<path d="M143.272 68.2144H135.707C135.028 68.2144 134.47 67.6614 134.47 66.9879V59.4878C134.47 58.8142 135.028 58.2612 135.707 58.2612H143.272C143.951 58.2612 144.509 58.8142 144.509 59.4878V66.9879C144.509 67.6715 143.951 68.2144 143.272 68.2144ZM135.717 58.7136C135.281 58.7136 134.936 59.0655 134.936 59.4878V66.9879C134.936 67.4202 135.291 67.762 135.717 67.762H143.282C143.718 67.762 144.063 67.4101 144.063 66.9879V59.4878C144.063 59.0555 143.708 58.7136 143.282 58.7136H135.717Z" fill="#3100AE"/>
<path d="M104.332 80.7815H96.7669C96.2091 80.7815 95.7528 80.3291 95.7528 79.7761V72.2861C95.7528 71.7332 96.2091 71.2808 96.7669 71.2808H104.332C104.89 71.2808 105.346 71.7332 105.346 72.2861V79.7862C105.346 80.3291 104.89 80.7815 104.332 80.7815Z" fill="white"/>
<path d="M104.332 81.0028H96.7669C96.0875 81.0028 95.5298 80.4498 95.5298 79.7762V72.2862C95.5298 71.6126 96.0875 71.0596 96.7669 71.0596H104.332C105.011 71.0596 105.569 71.6126 105.569 72.2862V79.7863C105.569 80.4599 105.011 81.0028 104.332 81.0028ZM96.7771 71.502C96.341 71.502 95.9963 71.8539 95.9963 72.2761V79.7762C95.9963 80.2085 96.3512 80.5503 96.7771 80.5503H104.342C104.778 80.5503 105.123 80.1985 105.123 79.7762V72.2862C105.123 71.8539 104.768 71.512 104.342 71.512H96.7771V71.502Z" fill="#3100AE"/>
<path d="M117.353 80.7815H109.788C109.23 80.7815 108.774 80.3291 108.774 79.7761V72.2861C108.774 71.7332 109.23 71.2808 109.788 71.2808H117.353C117.91 71.2808 118.367 71.7332 118.367 72.2861V79.7862C118.367 80.3291 117.91 80.7815 117.353 80.7815Z" fill="white"/>
<path d="M117.352 81.0028H109.788C109.108 81.0028 108.55 80.4498 108.55 79.7762V72.2862C108.55 71.6126 109.108 71.0596 109.788 71.0596H117.352C118.032 71.0596 118.59 71.6126 118.59 72.2862V79.7863C118.59 80.4599 118.032 81.0028 117.352 81.0028ZM109.798 71.502C109.362 71.502 109.017 71.8539 109.017 72.2761V79.7762C109.017 80.2085 109.372 80.5503 109.798 80.5503H117.363C117.799 80.5503 118.143 80.1985 118.143 79.7762V72.2862C118.143 71.8539 117.789 71.512 117.363 71.512H109.798V71.502Z" fill="#3100AE"/>
<path d="M130.627 80.9022H123.062C122.504 80.9022 122.048 80.4498 122.048 79.8968V72.3967C122.048 71.8438 122.504 71.3914 123.062 71.3914H130.627C131.184 71.3914 131.641 71.8438 131.641 72.3967V79.8968C131.631 80.4598 131.184 80.9022 130.627 80.9022Z" fill="white"/>
<path d="M130.627 81.1233H123.062C122.382 81.1233 121.825 80.5704 121.825 79.8968V72.3967C121.825 71.7231 122.382 71.1702 123.062 71.1702H130.627C131.306 71.1702 131.864 71.7231 131.864 72.3967V79.8968C131.854 80.5804 131.306 81.1233 130.627 81.1233ZM123.062 71.6226C122.626 71.6226 122.281 71.9745 122.281 72.3967V79.8968C122.281 80.3291 122.636 80.6709 123.062 80.6709H130.627C131.063 80.6709 131.407 80.319 131.407 79.8968V72.3967C131.407 71.9644 131.053 71.6226 130.627 71.6226H123.062Z" fill="#3100AE"/>
<path d="M143.526 80.9022H135.961C135.403 80.9022 134.947 80.4498 134.947 79.8968V72.3967C134.947 71.8438 135.403 71.3914 135.961 71.3914H143.526C144.083 71.3914 144.54 71.8438 144.54 72.3967V79.8968C144.529 80.4598 144.083 80.9022 143.526 80.9022Z" fill="white"/>
<path d="M143.525 81.1233H135.961C135.281 81.1233 134.723 80.5704 134.723 79.8968V72.3967C134.723 71.7231 135.281 71.1702 135.961 71.1702H143.525C144.205 71.1702 144.763 71.7231 144.763 72.3967V79.8968C144.752 80.5804 144.205 81.1233 143.525 81.1233ZM135.961 71.6226C135.525 71.6226 135.18 71.9745 135.18 72.3967V79.8968C135.18 80.3291 135.535 80.6709 135.961 80.6709H143.525C143.962 80.6709 144.306 80.319 144.306 79.8968V72.3967C144.306 71.9644 143.951 71.6226 143.525 71.6226H135.961Z" fill="#3100AE"/>
<path d="M104.332 93.6905H96.7669C96.2091 93.6905 95.7528 93.2381 95.7528 92.6851V85.1851C95.7528 84.6321 96.2091 84.1797 96.7669 84.1797H104.332C104.89 84.1797 105.346 84.6321 105.346 85.1851V92.6851C105.346 93.2381 104.89 93.6905 104.332 93.6905Z" fill="white"/>
<path d="M104.332 93.9117H96.7669C96.0875 93.9117 95.5298 93.3587 95.5298 92.6851V85.1851C95.5298 84.5115 96.0875 83.9585 96.7669 83.9585H104.332C105.011 83.9585 105.569 84.5115 105.569 85.1851V92.6851C105.569 93.3688 105.011 93.9117 104.332 93.9117ZM96.7771 84.4109C96.341 84.4109 95.9963 84.7628 95.9963 85.1851V92.6851C95.9963 93.1174 96.3512 93.4593 96.7771 93.4593H104.342C104.778 93.4593 105.123 93.1074 105.123 92.6851V85.1851C105.123 84.7527 104.768 84.4109 104.342 84.4109H96.7771Z" fill="#3100AE"/>
<path d="M117.353 93.6905H109.788C109.23 93.6905 108.774 93.2381 108.774 92.6851V85.1851C108.774 84.6321 109.23 84.1797 109.788 84.1797H117.353C117.91 84.1797 118.367 84.6321 118.367 85.1851V92.6851C118.367 93.2381 117.91 93.6905 117.353 93.6905Z" fill="white"/>
<path d="M117.352 93.9117H109.788C109.108 93.9117 108.55 93.3587 108.55 92.6851V85.1851C108.55 84.5115 109.108 83.9585 109.788 83.9585H117.352C118.032 83.9585 118.59 84.5115 118.59 85.1851V92.6851C118.59 93.3688 118.032 93.9117 117.352 93.9117ZM109.798 84.4109C109.362 84.4109 109.017 84.7628 109.017 85.1851V92.6851C109.017 93.1174 109.372 93.4593 109.798 93.4593H117.363C117.799 93.4593 118.143 93.1074 118.143 92.6851V85.1851C118.143 84.7527 117.789 84.4109 117.363 84.4109H109.798Z" fill="#3100AE"/>
<path d="M130.627 93.8112H123.062C122.504 93.8112 122.048 93.3587 122.048 92.8058V85.3057C122.048 84.7528 122.504 84.3004 123.062 84.3004H130.627C131.184 84.3004 131.641 84.7528 131.641 85.3057V92.8058C131.631 93.3688 131.184 93.8112 130.627 93.8112Z" fill="white"/>
<path d="M130.627 94.0323H123.062C122.382 94.0323 121.825 93.4794 121.825 92.8058V85.3057C121.825 84.6321 122.382 84.0792 123.062 84.0792H130.627C131.306 84.0792 131.864 84.6321 131.864 85.3057V92.8058C131.854 93.4894 131.306 94.0323 130.627 94.0323ZM123.062 84.5316C122.626 84.5316 122.281 84.8835 122.281 85.3057V92.8058C122.281 93.2381 122.636 93.5799 123.062 93.5799H130.627C131.063 93.5799 131.407 93.228 131.407 92.8058V85.3057C131.407 84.8734 131.053 84.5316 130.627 84.5316H123.062Z" fill="#3100AE"/>
<path d="M143.526 93.8112H135.961C135.403 93.8112 134.947 93.3587 134.947 92.8058V85.3057C134.947 84.7528 135.403 84.3004 135.961 84.3004H143.526C144.083 84.3004 144.54 84.7528 144.54 85.3057V92.8058C144.529 93.3688 144.083 93.8112 143.526 93.8112Z" fill="white"/>
<path d="M143.525 94.0323H135.961C135.281 94.0323 134.723 93.4794 134.723 92.8058V85.3057C134.723 84.6321 135.281 84.0792 135.961 84.0792H143.525C144.205 84.0792 144.763 84.6321 144.763 85.3057V92.8058C144.752 93.4894 144.205 94.0323 143.525 94.0323ZM135.961 84.5316C135.525 84.5316 135.18 84.8835 135.18 85.3057V92.8058C135.18 93.2381 135.535 93.5799 135.961 93.5799H143.525C143.962 93.5799 144.306 93.228 144.306 92.8058V85.3057C144.306 84.8734 143.951 84.5316 143.525 84.5316H135.961Z" fill="#3100AE"/>
<path d="M127.219 103.191H114.736C114.381 103.191 114.097 102.91 114.097 102.558V97.511C114.097 97.1591 114.381 96.8776 114.736 96.8776H127.219C127.574 96.8776 127.858 97.1591 127.858 97.511V102.558C127.858 102.91 127.574 103.191 127.219 103.191Z" fill="white"/>
<path d="M127.219 103.412H114.736C114.259 103.412 113.874 103.03 113.874 102.558V97.5109C113.874 97.0384 114.259 96.6564 114.736 96.6564H127.219C127.696 96.6564 128.081 97.0384 128.081 97.5109V102.558C128.081 103.03 127.696 103.412 127.219 103.412ZM114.736 97.0987C114.513 97.0987 114.32 97.2797 114.32 97.5109V102.558C114.32 102.779 114.503 102.97 114.736 102.97H127.219C127.442 102.97 127.635 102.789 127.635 102.558V97.5109C127.635 97.2898 127.452 97.0987 127.219 97.0987H114.736Z" fill="#3100AE"/>
<path d="M153.97 142.683H86.1193C84.3853 142.683 82.9656 141.285 82.9656 139.556V3.14709C82.9656 1.42791 84.3751 0.0203857 86.1193 0.0203857H153.97C155.704 0.0203857 157.124 1.41785 157.124 3.14709V139.556C157.124 141.275 155.714 142.683 153.97 142.683ZM86.1193 0.462749C84.6286 0.462749 83.4219 1.65914 83.4219 3.13704V139.546C83.4219 141.024 84.6286 142.22 86.1193 142.22H153.97C155.461 142.22 156.668 141.024 156.668 139.546V3.14709C156.668 1.66919 155.461 0.472803 153.97 0.472803H86.1193V0.462749Z" fill="#3100AE"/>
<path d="M129.998 143.919H112.607C112.181 143.919 111.836 143.577 111.836 143.155V116.271C111.836 114.713 113.114 113.446 114.685 113.446H128.821C129.957 113.446 130.88 114.361 130.88 115.487V143.044C130.88 143.527 130.484 143.919 129.998 143.919Z" fill="white"/>
<path d="M129.998 144.14H112.607C112.059 144.14 111.613 143.698 111.613 143.155V116.271C111.613 114.592 112.992 113.225 114.685 113.225H128.821C130.079 113.225 131.103 114.24 131.103 115.487V143.044C131.103 143.647 130.606 144.14 129.998 144.14ZM114.685 113.667C113.235 113.667 112.069 114.833 112.069 116.261V143.145C112.069 143.446 112.312 143.688 112.617 143.688H129.998C130.363 143.688 130.657 143.396 130.657 143.034V115.477C130.657 114.472 129.836 113.657 128.821 113.657H114.685V113.667Z" fill="#3100AE"/>
<path d="M123.923 126.968H118.387C117.687 126.968 117.119 126.405 117.119 125.712V120.222C117.119 119.529 117.687 118.966 118.387 118.966H123.923C124.623 118.966 125.191 119.529 125.191 120.222V125.712C125.191 126.405 124.623 126.968 123.923 126.968Z" fill="#3100AE"/>
<path d="M145.006 40.6773H95.5603C94.6274 40.6773 93.877 39.9334 93.877 39.0084V10.1945C93.877 9.26955 94.6274 8.52557 95.5603 8.52557H145.006C145.939 8.52557 146.689 9.26955 146.689 10.1945V39.0084C146.689 39.9334 145.939 40.6773 145.006 40.6773Z" fill="white"/>
<path d="M145.006 40.8985H95.5603C94.5056 40.8985 93.6538 40.054 93.6538 39.0084V10.1945C93.6538 9.14889 94.5056 8.30438 95.5603 8.30438H145.006C146.061 8.30438 146.912 9.14889 146.912 10.1945V39.0084C146.923 40.054 146.061 40.8985 145.006 40.8985ZM95.5603 8.74675C94.7591 8.74675 94.1 9.40024 94.1 10.1945V39.0084C94.1 39.8027 94.7591 40.4562 95.5603 40.4562H145.006C145.807 40.4562 146.466 39.8027 146.466 39.0084V10.1945C146.466 9.40024 145.807 8.74675 145.006 8.74675H95.5603Z" fill="#3100AE"/>
<path d="M106.107 28.1403C107.406 28.1403 108.459 27.096 108.459 25.8079C108.459 24.5197 107.406 23.4754 106.107 23.4754C104.807 23.4754 103.754 24.5197 103.754 25.8079C103.754 27.096 104.807 28.1403 106.107 28.1403Z" fill="#3100AE"/>
<path d="M113.509 28.0297C114.808 28.0297 115.862 26.9855 115.862 25.6973C115.862 24.4091 114.808 23.3648 113.509 23.3648C112.21 23.3648 111.156 24.4091 111.156 25.6973C111.156 26.9855 112.21 28.0297 113.509 28.0297Z" fill="#3100AE"/>
<path d="M121.023 27.9192C122.323 27.9192 123.376 26.8749 123.376 25.5867C123.376 24.2986 122.323 23.2543 121.023 23.2543C119.724 23.2543 118.671 24.2986 118.671 25.5867C118.671 26.8749 119.724 27.9192 121.023 27.9192Z" fill="#3100AE"/>
<path d="M128.436 27.8086C129.736 27.8086 130.789 26.7643 130.789 25.4761C130.789 24.188 129.736 23.1437 128.436 23.1437C127.137 23.1437 126.084 24.188 126.084 25.4761C126.084 26.7643 127.137 27.8086 128.436 27.8086Z" fill="#3100AE"/>
<path d="M135.727 27.5874C137.026 27.5874 138.08 26.5431 138.08 25.2549C138.08 23.9668 137.026 22.9225 135.727 22.9225C134.428 22.9225 133.375 23.9668 133.375 25.2549C133.375 26.5431 134.428 27.5874 135.727 27.5874Z" fill="#3100AE"/>
<path d="M94.1913 172.974C94.0797 172.974 93.9783 172.894 93.9682 172.783C93.9479 172.662 94.0391 172.552 94.1608 172.532C113.753 170.109 134.764 154.164 134.977 154.003C135.078 153.932 135.22 153.942 135.291 154.043C135.362 154.144 135.352 154.284 135.251 154.355C135.038 154.516 113.925 170.531 94.2115 172.964C94.2115 172.974 94.2014 172.974 94.1913 172.974Z" fill="#3100AE"/>
<path d="M92.508 176.453C92.3863 176.453 92.2849 176.362 92.2849 176.242C92.2747 176.121 92.3761 176.01 92.4978 176.01C107.81 175.307 127.676 163.031 127.878 162.9C127.98 162.84 128.122 162.87 128.193 162.971C128.264 163.071 128.223 163.212 128.122 163.282C127.919 163.403 107.952 175.749 92.5283 176.453C92.5181 176.453 92.508 176.453 92.508 176.453Z" fill="#3100AE"/>
<path d="M90.784 175.136C90.3783 175.136 89.9727 174.985 89.6685 174.683C89.0398 174.07 89.0296 173.065 89.6482 172.441C90.2668 171.818 91.2809 171.808 91.9096 172.421C92.5383 173.034 92.5484 174.04 91.9299 174.663C91.6155 174.975 91.1997 175.136 90.784 175.136ZM89.9727 174.362C90.429 174.804 91.1592 174.794 91.6054 174.341C92.0516 173.889 92.0414 173.165 91.5851 172.723C91.1288 172.28 90.3986 172.291 89.9524 172.743C89.5164 173.195 89.5164 173.929 89.9727 174.362Z" fill="#3100AE"/>
<path d="M139.165 153.44H139.155C139.074 153.44 139.003 153.389 138.962 153.319L137.015 149.398C136.985 149.328 136.985 149.257 137.025 149.187C137.066 149.127 137.127 149.076 137.198 149.076L142.004 148.654C142.085 148.644 142.177 148.684 142.217 148.765C142.258 148.835 142.258 148.926 142.217 148.996L139.368 153.349C139.307 153.4 139.236 153.44 139.165 153.44ZM137.563 149.489L139.195 152.766L141.578 149.127L137.563 149.489Z" fill="#3100AE"/>
<path d="M166.038 40.6974C165.977 40.6974 165.926 40.6773 165.875 40.6371C165.784 40.5466 165.784 40.4059 165.875 40.3255L166.656 39.5513C166.747 39.4608 166.889 39.4608 166.971 39.5513C167.062 39.6418 167.062 39.7826 166.971 39.863L166.19 40.6371C166.149 40.6773 166.088 40.6974 166.038 40.6974Z" fill="#3100AE"/>
<path d="M168.989 37.7617C168.928 37.7617 168.877 37.7416 168.826 37.7014C168.735 37.6109 168.735 37.4702 168.826 37.3897L169.607 36.6156C169.698 36.5251 169.84 36.5251 169.921 36.6156C170.013 36.7061 170.013 36.8468 169.921 36.9273L169.141 37.7014C169.11 37.7416 169.049 37.7617 168.989 37.7617Z" fill="#3100AE"/>
<path d="M169.78 40.6975C169.719 40.6975 169.668 40.6773 169.617 40.6371L168.837 39.863C168.745 39.7725 168.745 39.6318 168.837 39.5513C168.928 39.4709 169.07 39.4608 169.151 39.5513L169.932 40.3255C170.023 40.416 170.023 40.5567 169.932 40.6371C169.891 40.6773 169.83 40.6975 169.78 40.6975Z" fill="#3100AE"/>
<path d="M166.818 37.7617C166.758 37.7617 166.707 37.7416 166.656 37.7014L165.875 36.9273C165.784 36.8368 165.784 36.696 165.875 36.6156C165.967 36.5251 166.109 36.5251 166.19 36.6156L166.971 37.3897C167.062 37.4802 167.062 37.621 166.971 37.7014C166.93 37.7416 166.869 37.7617 166.818 37.7617Z" fill="#3100AE"/>
<path d="M4.60887 73.4926C4.57844 73.4926 4.54802 73.4825 4.5176 73.4725C4.40605 73.4222 4.35535 73.2915 4.40605 73.1809L4.86238 72.1856C4.91308 72.075 5.04491 72.0247 5.15646 72.075C5.26801 72.1253 5.31871 72.256 5.26801 72.3666L4.81168 73.3619C4.78126 73.4423 4.70013 73.4926 4.60887 73.4926Z" fill="#3100AE"/>
<path d="M6.34287 69.7224C6.31245 69.7224 6.28203 69.7124 6.25161 69.7023C6.14006 69.6521 6.08936 69.5214 6.14006 69.4108L6.59639 68.4155C6.64709 68.3049 6.77892 68.2546 6.89047 68.3049C7.00202 68.3551 7.05272 68.4858 7.00201 68.5964L6.54569 69.5917C6.51526 69.6722 6.43414 69.7224 6.34287 69.7224Z" fill="#3100AE"/>
<path d="M8.11755 72.1957C8.08713 72.1957 8.0567 72.1857 8.02628 72.1756L7.02236 71.7232C6.91081 71.6729 6.86011 71.5422 6.91081 71.4316C6.96152 71.321 7.09335 71.2708 7.20489 71.321L8.20881 71.7735C8.32036 71.8237 8.37106 71.9544 8.32036 72.065C8.2798 72.1454 8.19867 72.1957 8.11755 72.1957Z" fill="#3100AE"/>
<path d="M4.30468 70.4765C4.27426 70.4765 4.24384 70.4664 4.21342 70.4564L3.20949 70.004C3.09795 69.9537 3.04724 69.823 3.09795 69.7124C3.14865 69.6018 3.28048 69.5515 3.39203 69.6018L4.39595 70.0542C4.50749 70.1045 4.5582 70.2352 4.50749 70.3458C4.47707 70.4262 4.39595 70.4765 4.30468 70.4765Z" fill="#3100AE"/>
<path d="M14.6887 85.6878C13.7963 85.6878 13.0763 84.974 13.0763 84.0893C13.0763 83.2045 13.7963 82.4907 14.6887 82.4907C15.581 82.4907 16.301 83.2045 16.301 84.0893C16.3112 84.974 15.581 85.6878 14.6887 85.6878ZM14.6887 82.9331C14.0498 82.9331 13.5225 83.4559 13.5225 84.0893C13.5225 84.7226 14.0498 85.2454 14.6887 85.2454C15.3275 85.2454 15.8548 84.7226 15.8548 84.0893C15.8548 83.4458 15.3377 82.9331 14.6887 82.9331Z" fill="#3100AE"/>
<path d="M44.9685 136.369C40.7094 142.22 37.4543 152.223 34.9799 163.845C34.8177 164.609 32.962 178.112 33.7225 178.353C49.4303 183.249 50.556 183.249 61.1022 183.913C63.759 184.083 75.0151 183.913 82.8234 183.691C83.5028 183.671 84.0809 183.239 84.0504 182.565C83.0871 164.971 81.3936 143.758 81.3936 143.758L44.9685 136.369Z" fill="white"/>
<path d="M84.0403 182.797C83.9186 182.797 83.8273 182.706 83.8172 182.585C82.9045 166.017 81.3429 145.98 81.1806 143.949L45.0698 136.62C41.2468 141.938 37.9308 151.117 35.203 163.896C34.9698 165.001 33.3777 177.237 33.8442 178.172C33.9253 178.222 33.9659 178.323 33.9354 178.423C33.8949 178.544 33.7732 178.604 33.6515 178.564C33.3878 178.484 32.9924 178.363 33.7833 171.275C34.1585 167.857 34.6757 164.217 34.7568 163.805C37.5151 150.866 40.8919 141.586 44.7859 136.238C44.8366 136.167 44.9279 136.137 45.009 136.147L81.424 143.547C81.5254 143.567 81.5964 143.647 81.6065 143.748C81.6268 143.959 83.3 165.162 84.2634 182.565C84.2735 182.686 84.1721 182.797 84.0504 182.797H84.0403Z" fill="#3100AE"/>
<path d="M90.4593 92.6047C90.4593 92.6047 100.306 99.1698 104.91 97.9332C111.39 96.1939 114.239 79.8365 114.513 78.3888C114.787 76.941 116.044 69.5717 117.332 66.827C118.549 64.2432 119.289 61.5991 119.674 59.9804C119.908 59.0052 120.587 58.5226 121.246 58.6232C121.834 58.7136 122.22 59.1661 121.895 60.6239C121.51 62.3129 121.175 64.012 120.861 65.4597C120.76 65.9121 120.577 66.3444 120.901 66.0227C121.652 65.2687 122.869 64.4342 124.096 64.022C124.633 63.841 128.923 59.2364 130.069 59.7995C131.093 60.3021 125.272 66.6259 125.505 67.38C126.083 69.2399 125.749 71.7332 124.836 73.9752C123.285 77.7956 120.8 77.3733 120.374 79.173C119.948 80.9726 117.707 103.815 115.922 107.997C113.347 114.009 88.6543 109.626 88.6543 109.626L90.4593 92.6047Z" fill="white"/>
<path d="M104.89 111.405C97.5173 111.405 89.2121 109.957 88.6138 109.847C88.5023 109.827 88.4211 109.716 88.4313 109.606L90.2363 92.5745C90.2465 92.4941 90.2972 92.4338 90.3681 92.3936C90.4391 92.3634 90.5202 92.3634 90.5912 92.4137C90.6926 92.474 100.397 98.9084 104.849 97.712C110.376 96.224 113.266 83.8077 114.259 78.5295L114.3 78.3385C114.33 78.1776 114.371 77.9363 114.432 77.6347C114.858 75.3224 115.983 69.1896 117.139 66.7264C118.316 64.2331 119.056 61.6493 119.472 59.9201C119.725 58.8845 120.455 58.2713 121.297 58.402C121.622 58.4522 121.865 58.593 122.027 58.8242C122.291 59.2063 122.321 59.8095 122.129 60.6741C121.885 61.7398 121.672 62.7854 121.459 63.8109C121.338 64.404 121.216 64.967 121.104 65.5099C121.104 65.53 121.094 65.5401 121.094 65.5602C121.814 64.9268 122.879 64.203 124.045 63.8209C124.177 63.7706 124.785 63.2177 125.313 62.7351C127.473 60.7746 129.328 59.1862 130.19 59.6084C130.312 59.6687 130.383 59.7693 130.424 59.9C130.576 60.5333 129.511 62.0112 127.746 64.3538C126.895 65.4798 125.739 67.018 125.749 67.3297C126.307 69.1192 126.053 71.6427 125.069 74.0656C124.147 76.3277 122.879 77.1722 121.946 77.7855C121.267 78.2279 120.78 78.5597 120.618 79.2333C120.496 79.7359 120.212 82.0986 119.857 85.0745C118.955 92.5645 117.444 105.091 116.156 108.097C115.03 110.651 110.203 111.405 104.89 111.405ZM88.8977 109.445C91.2707 109.847 113.357 113.416 115.71 107.917C116.967 104.971 118.478 92.4841 119.38 85.0141C119.756 81.9075 120.029 79.6555 120.151 79.1227C120.354 78.2782 120.962 77.876 121.672 77.4035C122.605 76.7902 123.761 76.0261 124.623 73.8947C125.566 71.5723 125.81 69.1594 125.282 67.4403C125.161 67.0482 125.749 66.2036 127.351 64.0823C128.395 62.6949 130.14 60.3825 129.947 59.9905C129.298 59.6788 126.793 61.961 125.587 63.0568C124.745 63.831 124.36 64.1728 124.157 64.2331C122.869 64.6554 121.682 65.5502 121.054 66.1735C120.973 66.2539 120.8 66.4248 120.618 66.3243C120.425 66.2137 120.486 66.0126 120.567 65.711C120.587 65.6205 120.618 65.52 120.638 65.4195C120.749 64.8866 120.871 64.3135 120.993 63.7304C121.206 62.715 121.429 61.6594 121.672 60.5937C121.835 59.8698 121.824 59.3671 121.642 59.0957C121.551 58.965 121.419 58.8845 121.216 58.8544C120.618 58.7639 120.09 59.2364 119.898 60.0407C119.482 61.7901 118.731 64.404 117.535 66.9275C116.399 69.3404 115.284 75.433 114.858 77.7252C114.807 78.0268 114.756 78.2681 114.726 78.429L114.685 78.62C113.681 83.9786 110.731 96.596 104.96 98.1443C104.545 98.2549 104.088 98.3051 103.602 98.3051C99.1499 98.3051 92.2036 93.9921 90.6419 92.9867L88.8977 109.445Z" fill="#3100AE"/>
<path d="M49.0248 83.7172C60.8894 78.4692 83.8275 79.555 99.9207 96.6765C101.817 98.6872 96.3512 113.868 91.4735 112.833C87.1637 111.908 83.6551 110.842 83.3306 113.315C82.8743 116.734 85.9672 144.1 81.4647 151.821C73.4333 165.615 49.4609 163.554 37.1299 156.828C33.8748 155.048 37.2921 150.172 39.6853 134.237C41.4701 122.364 42.5044 112.531 40.3039 116.331C39.2189 118.191 27.8816 106.992 29.0681 103.654C31.654 96.2944 36.2172 89.3775 49.0248 83.7172Z" fill="#3100AE"/>
<path d="M111.907 79.8465L121.409 81.1233C122.058 102.839 119.969 118.453 91.4633 112.823L95.3167 92.6248C105.944 99.974 109.899 91.0363 111.907 79.8465Z" fill="#3100AE"/>
<path d="M31.6945 98.2147C17.8424 118.181 25.8028 158.999 44.5832 159.301L44.0964 141.657C42.5246 139.686 41.7337 120.212 44.7049 114.029L31.6945 98.2147Z" fill="#3100AE"/>
<path d="M36.2983 156.416C36.278 156.416 36.2577 156.416 36.2374 156.406C36.1157 156.375 36.0447 156.255 36.0853 156.134C38.8841 146.181 40.4458 130.246 40.9731 118.654C40.9832 118.533 41.0846 118.433 41.2063 118.443C41.328 118.453 41.4294 118.553 41.4193 118.674C40.892 130.296 39.3303 146.261 36.5214 156.255C36.4909 156.345 36.3997 156.416 36.2983 156.416Z" fill="white"/>
<path d="M56.2144 81.9176C56.3462 81.4451 61.0109 77.6146 59.7839 68.9885C59.7839 68.9885 53.4663 60.4831 55.393 56.723C57.3096 52.9729 57.1473 47.4233 63.5968 47.373C70.0462 47.3228 73.8388 50.1981 75.3295 53.928C76.8201 57.658 77.2055 61.398 77.3475 63.5696C77.4489 65.1781 77.2359 68.7673 77.1142 70.5267C77.0737 71.1299 76.6477 71.6427 76.0596 71.8035L74.1126 72.3464C73.4737 72.5274 73.0478 73.1005 73.058 73.754L73.129 77.2024C73.4332 85.6475 70.6749 84.4712 68.6569 84.9236C63.4954 86.0999 55.535 84.3908 56.2144 81.9176Z" fill="white"/>
<path d="M64.9051 85.5369C61.3863 85.5369 57.7762 84.6824 56.4579 83.3251C56.0219 82.8727 55.8596 82.36 55.9914 81.8573C56.0219 81.7366 56.1334 81.616 56.3667 81.3345C57.4111 80.0778 60.575 76.2775 59.5711 69.079C59.0235 68.325 53.2839 60.3524 55.1903 56.6325C55.6467 55.7377 55.9914 54.7223 56.3261 53.7371C57.4111 50.5199 58.5469 47.1921 63.5969 47.1619C69.4683 47.1217 73.8187 49.5547 75.5324 53.8577C76.6479 56.6627 77.3375 59.9301 77.5606 63.5595C77.662 65.148 77.4592 68.6166 77.3273 70.5469C77.2766 71.2406 76.7899 71.8337 76.1104 72.0248L74.1635 72.5677C73.626 72.7185 73.2609 73.2111 73.2711 73.7641L73.3421 77.2125C73.6057 84.6221 71.4762 84.8432 69.59 85.0343C69.2757 85.0644 68.9715 85.0946 68.6977 85.165C67.5416 85.4163 66.2335 85.5369 64.9051 85.5369ZM56.4275 81.9779C56.3362 82.3298 56.4478 82.6716 56.7824 83.0135C58.4658 84.7528 64.54 85.6274 68.5962 84.7125C68.9106 84.6422 69.2351 84.612 69.5495 84.5818C71.3241 84.4009 73.1494 84.2099 72.8959 77.2125L72.8249 73.754C72.8046 73 73.3116 72.3264 74.0418 72.1253L75.9888 71.5824C76.4857 71.4416 76.8406 71.0093 76.8811 70.4966C77.013 68.5763 77.2158 65.138 77.1144 63.5696C76.8913 59.9804 76.2119 56.7632 75.1167 53.9985C73.4739 49.8865 69.2858 47.554 63.5969 47.5842C58.8612 47.6143 57.837 50.6506 56.752 53.8577C56.4174 54.853 56.0624 55.8885 55.596 56.8135C53.7605 60.4027 59.9057 68.7573 59.9666 68.8478C59.9869 68.8779 60.0071 68.9081 60.0071 68.9483C61.0618 76.378 57.7863 80.309 56.7114 81.6059C56.5897 81.7668 56.4579 81.9277 56.4275 81.9779Z" fill="#3100AE"/>
<path d="M73.1393 59.6989C73.9201 59.3772 74.4271 58.6232 74.4474 57.7787C74.4677 56.7733 73.8491 54.4609 75.3296 53.9281C79.3048 52.5005 77.7634 47.7551 75.3905 46.0058C73.0277 44.2564 63.7592 41.3409 59.0641 43.8744C59.0641 43.8744 57.2083 45.4126 57.6241 46.9408C57.6241 46.9408 53.8924 47.0514 53.0203 49.786C52.1482 52.5206 50.6778 62.5944 59.9869 70.2051C59.9869 70.2051 62.3902 70.4866 65.0572 69.7828C66.6087 69.3706 67.7444 68.0536 67.9675 66.4751C68.3022 64.0522 69.2858 60.3524 69.9652 59.2465C69.9652 59.2465 69.5393 57.5273 70.5027 57.095C71.1314 56.8135 71.9021 57.5374 72.2367 58.1306L73.1393 59.6989Z" fill="#3100AE"/>
<path d="M76.8508 71.3914C76.8406 71.3914 76.8305 71.3914 76.8102 71.3914C76.7798 71.3813 73.3117 70.7681 72.5106 67.0381C72.4801 66.9175 72.5613 66.7969 72.683 66.7767C72.8046 66.7466 72.9263 66.827 72.9466 66.9477C73.697 70.386 76.8508 70.949 76.8812 70.949C77.0029 70.9691 77.084 71.0797 77.0637 71.2004C77.0536 71.311 76.9623 71.3914 76.8508 71.3914Z" fill="#3100AE"/>
<path d="M72.48 63.4993C72.48 63.4993 72.4699 63.4993 72.48 63.4993C72.3583 63.4993 69.5595 63.3786 68.8192 58.4724C68.799 58.3518 68.8902 58.2412 69.0119 58.2211C69.1336 58.201 69.2451 58.2914 69.2654 58.4121C69.9448 62.9262 72.3887 63.0569 72.4901 63.067C72.6118 63.067 72.7132 63.1775 72.7031 63.2982C72.693 63.4088 72.6017 63.4993 72.48 63.4993Z" fill="#3100AE"/>
<path d="M112.708 155.189L112.272 153.621L110.477 153.701C110.315 153.359 110.122 153.028 109.899 152.716L110.852 151.208L109.686 150.062L108.175 151.017C107.861 150.806 107.526 150.615 107.181 150.454L107.242 148.674L105.65 148.262L104.829 149.841C104.454 149.81 104.068 149.81 103.683 149.851L102.841 148.282L101.259 148.715L101.34 150.494C100.996 150.655 100.661 150.846 100.357 151.067L98.8357 150.122L97.6797 151.278L98.643 152.776C98.4301 153.088 98.2374 153.42 98.0752 153.761L96.2803 153.701L95.8645 155.28L97.4566 156.094C97.4262 156.466 97.4262 156.848 97.4667 157.23L95.8848 158.064L96.3208 159.633L98.1157 159.552C98.278 159.894 98.4706 160.226 98.6937 160.538L97.7405 162.046L98.9067 163.192L100.418 162.237C100.732 162.448 101.067 162.639 101.411 162.8L101.351 164.579L102.943 164.991L103.764 163.413C104.139 163.443 104.525 163.443 104.91 163.403L105.752 164.971L107.334 164.539L107.252 162.76C107.597 162.599 107.932 162.408 108.236 162.186L109.757 163.132L110.913 161.975L109.95 160.477C110.163 160.166 110.355 159.834 110.518 159.492L112.313 159.552L112.728 157.974L111.136 157.16C111.167 156.788 111.167 156.406 111.126 156.024L112.708 155.189ZM105.417 160.668C103.166 161.282 100.844 159.965 100.225 157.733C99.6064 155.501 100.935 153.188 103.186 152.585C105.437 151.972 107.759 153.289 108.378 155.521C108.986 157.753 107.668 160.055 105.417 160.668Z" fill="#3100AE"/>
<path d="M35.6493 47.4636C43.8989 47.4636 50.5864 40.8333 50.5864 32.6545C50.5864 24.4756 43.8989 17.8453 35.6493 17.8453C27.3997 17.8453 20.7122 24.4756 20.7122 32.6545C20.7122 40.8333 27.3997 47.4636 35.6493 47.4636Z" fill="#3100AE"/>
<path d="M39.1175 30.5733L39.0465 25.8782C39.0161 24.3601 37.7992 23.1134 36.268 23.0431C34.5846 22.9626 33.1852 24.3299 33.2258 26.0089L33.2562 27.4667C33.2664 27.9794 32.8405 28.3916 32.3334 28.3715C31.867 28.3514 31.4918 27.9694 31.4816 27.5069L31.4613 26.1195C31.4005 23.4352 33.5706 21.2233 36.3694 21.3339C38.6815 21.4244 40.8008 23.4452 40.8516 25.8983L40.9124 30.6437L39.1175 30.5733Z" fill="white"/>
<path d="M40.9021 30.8648C40.892 30.8648 40.892 30.8648 40.9021 30.8648L39.1072 30.7944C38.9855 30.7944 38.8943 30.6939 38.8943 30.5733L38.8233 25.8782C38.7929 24.4807 37.6672 23.3346 36.2577 23.2642C35.5073 23.2341 34.7974 23.4955 34.26 24.0182C33.7225 24.541 33.4285 25.2549 33.4487 25.9988L33.4792 27.4566C33.4893 27.7582 33.3676 28.0598 33.1445 28.271C32.9214 28.4821 32.6273 28.6027 32.3231 28.5826C31.735 28.5625 31.2685 28.0799 31.2584 27.4968L31.2381 26.1094C31.2077 24.7321 31.7248 23.4351 32.7085 22.48C33.682 21.535 34.98 21.0423 36.3794 21.1027C36.3895 21.1027 36.3997 21.1027 36.4098 21.1027C38.8841 21.2233 41.0137 23.405 41.0745 25.8782L41.1353 30.6235C41.1353 30.6839 41.1151 30.7442 41.0644 30.7844C41.0137 30.8447 40.9528 30.8648 40.9021 30.8648ZM39.3303 30.3521L40.6689 30.4024L40.608 25.8882C40.5573 23.6262 38.6002 21.6355 36.3388 21.545C36.3287 21.545 36.3185 21.545 36.3084 21.545C35.051 21.5048 33.8746 21.9472 33.0026 22.8017C32.1102 23.6664 31.6336 24.8427 31.664 26.0994L31.6843 27.4868C31.6843 27.8387 31.9682 28.1202 32.3231 28.1403C32.5057 28.1503 32.6882 28.0799 32.82 27.9492C32.9519 27.8185 33.0228 27.6476 33.0228 27.4667L32.9924 26.0089C32.9721 25.1443 33.3169 24.3098 33.9456 23.7066C34.5744 23.0933 35.3957 22.7816 36.278 22.8219C37.9208 22.8922 39.2289 24.2394 39.2695 25.8681L39.3303 30.3521Z" fill="#3100AE"/>
<path d="M37.1298 43.4822L35.1321 43.5626C32.3637 43.4923 29.9198 40.2148 30.1835 36.3642L30.5992 30.2013L42.3624 30.1108C43.4069 30.1108 44.279 31.0257 44.208 32.0612L43.8429 37.269C43.6097 40.7677 40.679 43.4822 37.1298 43.4822Z" fill="white"/>
<path d="M35.2031 43.3918C31.3091 43.3918 28.2263 40.1243 28.49 36.2637L28.8956 30.2817H41.3382C41.906 30.2817 42.3624 30.7643 42.3218 31.3273L41.9263 37.1585C41.6829 40.6672 38.7422 43.3918 35.2031 43.3918Z" fill="white"/>
<path d="M35.203 43.6129C33.256 43.6129 31.451 42.8388 30.1225 41.4212C28.7941 40.0137 28.135 38.1739 28.2668 36.2436L28.6724 30.2616C28.6826 30.141 28.7738 30.0505 28.8955 30.0505H41.3381C41.6727 30.0505 41.9972 30.1912 42.2203 30.4325C42.4535 30.6738 42.5651 31.0056 42.5448 31.3374L42.1493 37.1685C41.8958 40.7878 38.8536 43.6129 35.203 43.6129ZM29.1085 30.5129L28.713 36.2838C28.5913 38.0834 29.2099 39.8026 30.447 41.1297C31.6943 42.4467 33.3777 43.1806 35.203 43.1806C38.6102 43.1806 41.4699 40.5365 41.693 37.1585L42.0885 31.3273C42.0986 31.1162 42.0276 30.9151 41.8857 30.7542C41.7437 30.6034 41.5409 30.5129 41.3279 30.5129H29.1085Z" fill="#3100AE"/>
<path d="M35.0511 39.6116C34.7367 39.6116 34.4832 39.3502 34.5035 39.0285L34.7975 34.3837C34.8178 34.0921 35.0612 33.8709 35.3451 33.8709C35.6595 33.8709 35.913 34.1323 35.8927 34.454L35.5986 39.0988C35.5784 39.3803 35.335 39.6116 35.0511 39.6116Z" fill="#3100AE"/>
<path d="M35.2437 36.8167C36.3638 36.8167 37.2718 35.9164 37.2718 34.8059C37.2718 33.6954 36.3638 32.7952 35.2437 32.7952C34.1236 32.7952 33.2156 33.6954 33.2156 34.8059C33.2156 35.9164 34.1236 36.8167 35.2437 36.8167Z" fill="#3100AE"/>
</svg>
